<svg width="132" height="48" viewBox="0 0 132 48" fill="none" xmlns="http://www.w3.org/2000/svg">
<path d="M8.94141 36.8258H34.5914V11.1758H8.94141V36.8258ZM29.6544 21.5328H24.2344V16.1128H29.6544V21.5328ZM13.8774 16.1128H19.3004V26.4688H29.6544V31.8888H13.8774V16.1128ZM51.2944 11.1758C48.7579 11.1758 46.2783 11.928 44.1692 13.3372C42.0601 14.7464 40.4163 16.7494 39.4456 19.0929C38.475 21.4363 38.221 24.015 38.7158 26.5028C39.2107 28.9906 40.4321 31.2758 42.2258 33.0694C44.0194 34.863 46.3046 36.0845 48.7924 36.5794C51.2802 37.0742 53.8588 36.8202 56.2023 35.8495C58.5458 34.8788 60.5488 33.235 61.958 31.126C63.3672 29.0169 64.1194 26.5373 64.1194 24.0008C64.1154 20.6006 62.763 17.3408 60.3587 14.9365C57.9544 12.5322 54.6946 11.1798 51.2944 11.1758ZM51.2944 31.8888C49.7343 31.8888 48.2092 31.4262 46.9121 30.5594C45.6149 29.6927 44.6039 28.4607 44.0068 27.0194C43.4098 25.578 43.2536 23.992 43.558 22.4619C43.8623 20.9318 44.6136 19.5263 45.7167 18.4231C46.8199 17.32 48.2254 16.5687 49.7555 16.2643C51.2856 15.96 52.8717 16.1162 54.313 16.7132C55.7543 17.3102 56.9863 18.3213 57.853 19.6184C58.7198 20.9156 59.1824 22.4407 59.1824 24.0008C59.1792 26.0918 58.3472 28.0963 56.8686 29.5749C55.39 31.0535 53.3855 31.8856 51.2944 31.8888ZM110.013 11.1758C107.477 11.1756 104.997 11.9276 102.888 13.3367C100.779 14.7458 99.1348 16.7487 98.1639 19.0922C97.1931 21.4356 96.939 24.0143 97.4337 26.5022C97.9284 28.9901 99.1498 31.2754 100.943 33.0691C102.737 34.8628 105.022 36.0844 107.51 36.5793C109.998 37.0742 112.577 36.8203 114.92 35.8496C117.264 34.879 119.267 33.2352 120.676 31.1261C122.085 29.017 122.837 26.5374 122.837 24.0008C122.833 20.6008 121.481 17.3411 119.077 14.9369C116.673 12.5326 113.413 11.18 110.013 11.1758ZM110.013 31.8888C108.453 31.889 106.928 31.4265 105.631 30.5599C104.333 29.6933 103.322 28.4614 102.725 27.0201C102.128 25.5788 101.972 23.9927 102.276 22.4625C102.58 20.9323 103.331 19.5267 104.434 18.4235C105.537 17.3202 106.943 16.5689 108.473 16.2644C110.003 15.96 111.589 16.1161 113.031 16.7131C114.472 17.3101 115.704 18.3211 116.571 19.6183C117.438 20.9155 117.9 22.4406 117.9 24.0008C117.897 26.0917 117.065 28.096 115.587 29.5746C114.109 31.0532 112.104 31.8853 110.013 31.8888ZM80.6534 11.1758C78.1169 11.1758 75.6373 11.928 73.5282 13.3372C71.4191 14.7464 69.7753 16.7494 68.8046 19.0929C67.834 21.4363 67.58 24.015 68.0748 26.5028C68.5697 28.9906 69.7911 31.2758 71.5848 33.0694C73.3784 34.863 75.6636 36.0845 78.1514 36.5794C80.6392 37.0742 83.2178 36.8202 85.5613 35.8495C87.9048 34.8788 89.9078 33.235 91.317 31.126C92.7262 29.0169 93.4784 26.5373 93.4784 24.0008C93.4744 20.6006 92.1219 17.3408 89.7177 14.9365C87.3134 12.5322 84.0536 11.1798 80.6534 11.1758ZM80.6534 31.8888C79.1999 31.8895 77.7744 31.4886 76.5343 30.7303C75.2943 29.972 74.2879 28.8858 73.6262 27.5917C72.9645 26.2975 72.6732 24.8456 72.7846 23.3964C72.896 21.9471 73.4057 20.5568 74.2573 19.3789C75.109 18.201 76.2696 17.2814 77.6109 16.7215C78.9523 16.1616 80.4223 15.9832 81.8587 16.206C83.295 16.4288 84.6419 17.0442 85.7505 17.9842C86.8592 18.9242 87.6866 20.1522 88.1414 21.5328H80.6534V26.4688H88.1414C87.6205 28.0441 86.6169 29.4154 85.2729 30.3883C83.9288 31.3611 82.3126 31.8861 80.6534 31.8888Z" fill="#0D0E10"/>
</svg>
