<svg width="177" height="48" viewBox="0 0 177 48" fill="none" xmlns="http://www.w3.org/2000/svg">
<path d="M43.6055 9.05078H47.9607V32.8066H55.1271V36.766H43.6055V9.05078Z" fill="#0D0E10"/>
<path d="M63.3562 37.1614C61.2182 37.1614 59.5817 36.5543 58.4466 35.3401C57.3116 34.1258 56.7441 32.4102 56.7441 30.1929V15.6227C56.7441 13.4055 57.3116 11.6898 58.4466 10.4756C59.5817 9.26139 61.2182 8.6543 63.3562 8.6543C65.4942 8.6543 67.1307 9.26139 68.2657 10.4756C69.4007 11.6898 69.9682 13.4055 69.9682 15.6227V30.1929C69.9682 32.4102 69.4007 34.1258 68.2657 35.3401C67.1307 36.5543 65.4942 37.1614 63.3562 37.1614ZM63.3562 33.2021C64.8607 33.2021 65.613 32.2914 65.613 30.4701V15.3455C65.613 13.5243 64.8607 12.6136 63.3562 12.6136C61.8516 12.6136 61.0993 13.5243 61.0993 15.3455V30.4701C61.0993 32.2914 61.8516 33.2021 63.3562 33.2021Z" fill="#0D0E10"/>
<path d="M79.091 37.1614C76.9793 37.1614 75.3692 36.5675 74.2605 35.3796C73.1519 34.1655 72.5977 32.4366 72.5977 30.1929V15.6227C72.5977 13.3791 73.1519 11.6634 74.2605 10.4756C75.3692 9.26139 76.9793 8.6543 79.091 8.6543C81.2026 8.6543 82.8127 9.26139 83.9213 10.4756C85.0299 11.6634 85.5842 13.3791 85.5842 15.6227V17.9983H81.4665V15.3455C81.4665 13.5243 80.7142 12.6136 79.2097 12.6136C77.7052 12.6136 76.9529 13.5243 76.9529 15.3455V30.5098C76.9529 32.3047 77.7052 33.2021 79.2097 33.2021C80.7142 33.2021 81.4665 32.3047 81.4665 30.5098V25.0855H79.2889V21.1262H85.5842V30.1929C85.5842 32.4366 85.0299 34.1655 83.9213 35.3796C82.8127 36.5675 81.2026 37.1614 79.091 37.1614Z" fill="#0D0E10"/>
<path d="M94.6745 37.1614C92.5365 37.1614 90.9 36.5543 89.7651 35.3401C88.63 34.1258 88.0625 32.4102 88.0625 30.1929V15.6227C88.0625 13.4055 88.63 11.6898 89.7651 10.4756C90.9 9.26139 92.5365 8.6543 94.6745 8.6543C96.8126 8.6543 98.4491 9.26139 99.5841 10.4756C100.719 11.6898 101.287 13.4055 101.287 15.6227V30.1929C101.287 32.4102 100.719 34.1258 99.5841 35.3401C98.4491 36.5543 96.8126 37.1614 94.6745 37.1614ZM94.6745 33.2021C96.1791 33.2021 96.9314 32.2914 96.9314 30.4701V15.3455C96.9314 13.5243 96.1791 12.6136 94.6745 12.6136C93.1701 12.6136 92.4178 13.5243 92.4178 15.3455V30.4701C92.4178 32.2914 93.1701 33.2021 94.6745 33.2021Z" fill="#0D0E10"/>
<path d="M104.24 9.05078H108.596V36.766H104.24V9.05078Z" fill="#0D0E10"/>
<path d="M111.857 9.05078H118.271C120.436 9.05078 122.059 9.63148 123.142 10.7929C124.224 11.9543 124.765 13.6568 124.765 15.9004V18.6323C124.765 20.876 124.224 22.5784 123.142 23.7399C122.059 24.9012 120.436 25.4819 118.271 25.4819H116.213V36.766H111.857V9.05078ZM118.271 21.5226C118.984 21.5226 119.512 21.3246 119.856 20.9287C120.225 20.5327 120.409 19.8597 120.409 18.9094V15.6232C120.409 14.673 120.225 13.9999 119.856 13.604C119.512 13.2081 118.984 13.0101 118.271 13.0101H116.213V21.5226H118.271Z" fill="#0D0E10"/>
<path d="M132.945 37.1614C130.835 37.1614 129.237 36.5675 128.155 35.3796C127.073 34.1655 126.531 32.4366 126.531 30.1929V28.6092H130.649V30.5098C130.649 32.3047 131.401 33.2021 132.906 33.2021C133.645 33.2021 134.199 32.9909 134.569 32.5686C134.964 32.1199 135.163 31.4072 135.163 30.4305C135.163 29.2691 134.899 28.2529 134.371 27.3819C133.844 26.4844 132.867 25.4154 131.441 24.1748C129.646 22.591 128.392 21.1657 127.679 19.8987C126.967 18.6054 126.611 17.1536 126.611 15.5435C126.611 13.3527 127.165 11.6634 128.273 10.4756C129.382 9.26139 130.993 8.6543 133.104 8.6543C135.189 8.6543 136.76 9.26139 137.815 10.4756C138.898 11.6634 139.439 13.3791 139.439 15.6227V16.7709H135.321V15.3455C135.321 14.3953 135.137 13.709 134.767 13.2867C134.398 12.838 133.857 12.6136 133.144 12.6136C131.691 12.6136 130.966 13.4979 130.966 15.2664C130.966 16.2694 131.23 17.2064 131.758 18.0775C132.312 18.9485 133.302 20.0043 134.728 21.2449C136.549 22.8286 137.802 24.2672 138.489 25.5606C139.175 26.854 139.518 28.3716 139.518 30.1138C139.518 32.3838 138.95 34.1258 137.815 35.3401C136.707 36.5543 135.083 37.1614 132.945 37.1614Z" fill="#0D0E10"/>
<path d="M148.353 37.1619C146.241 37.1619 144.631 36.568 143.522 35.3802C142.413 34.1661 141.859 32.4371 141.859 30.1935V9.05078H146.215V30.5103C146.215 31.4605 146.399 32.1468 146.769 32.5692C147.165 32.9914 147.72 33.2026 148.431 33.2026C149.145 33.2026 149.685 32.9914 150.055 32.5692C150.451 32.1468 150.649 31.4605 150.649 30.5103V9.05078H154.846V30.1935C154.846 32.4371 154.292 34.1661 153.183 35.3802C152.074 36.568 150.464 37.1619 148.353 37.1619Z" fill="#0D0E10"/>
<path d="M157.945 9.05078H164.162L166.933 28.8869H167.012L169.784 9.05078H176V36.766H171.882V15.7816H171.804L168.635 36.766H164.993L161.826 15.7816H161.747V36.766H157.945V9.05078Z" fill="#0D0E10"/>
<path d="M1.55859 36.7646C6.91668 36.7646 11.2602 32.421 11.2602 27.063C11.2602 21.7049 6.91668 17.3613 1.55859 17.3613V24.1524C3.166 24.1524 4.46907 25.4555 4.46907 27.063C4.46907 28.6704 3.166 29.9735 1.55859 29.9735V36.7646Z" fill="#0D0E10"/>
<path d="M33.8969 20.5957C32.239 20.0705 30.4736 19.7871 28.6418 19.7871C19.0419 19.7871 11.2598 27.5694 11.2598 37.1692C11.2598 38.1328 11.3382 39.078 11.4889 39.9989H22.289C21.9034 39.1345 21.6891 38.1769 21.6891 37.1692C21.6891 33.3293 24.8019 30.2164 28.6418 30.2164C30.7406 30.2164 32.622 31.1463 33.8969 32.6165V20.5957Z" fill="#0D0E10"/>
<path d="M3.26367 7.66016C4.068 14.9363 10.2368 20.5957 17.7273 20.5957C25.2178 20.5957 31.3866 14.9363 32.1909 7.66016H21.7838C21.1413 9.2708 19.5672 10.4089 17.7273 10.4089C15.8874 10.4089 14.3134 9.2708 13.6708 7.66016H3.26367Z" fill="#0D0E10"/>
</svg>
