<svg width="179" height="100" viewBox="0 0 179 100" fill="none" xmlns="http://www.w3.org/2000/svg">
<path d="M41.755 48.371C41.376 48.7523 41.0858 49.2125 40.905 49.7187C40.7242 50.225 40.6572 50.7649 40.709 51.3L40.691 51.282C40.7441 51.9119 40.6592 52.5457 40.4421 53.1394C40.225 53.733 39.881 54.2721 39.434 54.7191C38.9871 55.166 38.448 55.5101 37.8543 55.7272C37.2607 55.9443 36.6268 56.0292 35.997 55.976L36.015 55.994C35.2615 55.9239 34.5048 56.0878 33.848 56.4635C33.1912 56.8392 32.6662 57.4083 32.3447 58.0933C32.0231 58.7783 31.9207 59.5458 32.0513 60.2911C32.1819 61.0364 32.5392 61.7233 33.0745 62.2581C33.6098 62.7929 34.297 63.1496 35.0425 63.2795C35.7879 63.4095 36.5553 63.3064 37.24 62.9842C37.9247 62.6621 38.4933 62.1366 38.8684 61.4794C39.2435 60.8222 39.4068 60.0654 39.336 59.312L39.355 59.33C39.3018 58.7002 39.3867 58.0663 39.6038 57.4727C39.8209 56.879 40.1649 56.3399 40.6119 55.8929C41.0588 55.446 41.598 55.102 42.1916 54.8849C42.7852 54.6678 43.4191 54.5828 44.049 54.636L44.03 54.618C44.6454 54.6734 45.2649 54.5725 45.8309 54.3246C46.397 54.0768 46.8914 53.6902 47.2682 53.2004C47.645 52.7107 47.8921 52.1337 47.9866 51.5231C48.0811 50.9124 48.0199 50.2878 47.8087 49.7071C47.5975 49.1263 47.2431 48.6083 46.7784 48.201C46.3137 47.7937 45.7537 47.5104 45.1503 47.3771C44.5469 47.2439 43.9196 47.2651 43.3266 47.4389C42.7336 47.6126 42.1941 47.9332 41.758 48.371H41.755Z" fill="#0D0E10"/>
<path d="M34.3771 53.6358L34.3581 53.6178C34.8934 53.6717 35.4341 53.606 35.9409 53.4254C36.4477 53.2448 36.9081 52.9538 37.2887 52.5735C37.6693 52.1932 37.9606 51.7331 38.1416 51.2264C38.3225 50.7197 38.3886 50.1791 38.3351 49.6438L38.3541 49.6618C38.3009 49.0319 38.3859 48.398 38.603 47.8044C38.8201 47.2108 39.1641 46.6716 39.611 46.2247C40.058 45.7777 40.5971 45.4337 41.1908 45.2166C41.7844 44.9995 42.4183 44.9146 43.0481 44.9678L43.0291 44.9498C43.7826 45.0205 44.5396 44.8571 45.1968 44.4819C45.854 44.1066 46.3794 43.5377 46.7014 42.8529C47.0235 42.168 47.1264 41.4005 46.9961 40.655C46.8659 39.9094 46.5089 39.2223 45.9737 38.6871C45.4386 38.152 44.7514 37.795 44.0059 37.6647C43.2604 37.5345 42.4929 37.6374 41.808 37.9594C41.1231 38.2815 40.5543 38.8069 40.179 39.4641C39.8037 40.1213 39.6404 40.8783 39.7111 41.6318L39.6931 41.6128C39.7465 42.2426 39.6617 42.8766 39.4446 43.4703C39.2276 44.064 38.8836 44.6032 38.4366 45.0502C37.9896 45.4972 37.4504 45.8412 36.8567 46.0583C36.2629 46.2753 35.629 46.3601 34.9991 46.3068L35.0171 46.3258C34.4818 46.2718 33.9412 46.3375 33.4343 46.5181C32.9275 46.6987 32.4672 46.9897 32.0866 47.37C31.706 47.7503 31.4146 48.2104 31.2337 48.7171C31.0527 49.2238 30.9866 49.7644 31.0401 50.2998L31.0221 50.2818C31.0751 50.9116 30.9901 51.5454 30.7729 52.1389C30.5557 52.7325 30.2117 53.2715 29.7648 53.7184C29.3179 54.1654 28.7788 54.5094 28.1853 54.7265C27.5917 54.9437 26.9579 55.0288 26.3281 54.9758L26.3461 54.9938C25.5926 54.923 24.8357 55.0864 24.1785 55.4617C23.5213 55.8369 22.9958 56.4058 22.6738 57.0907C22.3518 57.7755 22.2489 58.5431 22.3791 59.2886C22.5093 60.0341 22.8663 60.7213 23.4015 61.2564C23.9366 61.7915 24.6238 62.1486 25.3693 62.2788C26.1148 62.409 26.8824 62.3061 27.5672 61.9841C28.2521 61.6621 28.8209 61.1366 29.1962 60.4794C29.5715 59.8222 29.7349 59.0652 29.6641 58.3118L29.6831 58.3298C29.6299 57.6999 29.7149 57.066 29.932 56.4724C30.1491 55.8788 30.4931 55.3396 30.94 54.8927C31.387 54.4457 31.9261 54.1017 32.5198 53.8846C33.1134 53.6675 33.7473 53.5826 34.3771 53.6358Z" fill="#0D0E10"/>
<path d="M27.6761 51.6289C28.0552 51.2477 28.3454 50.7875 28.526 50.2812C28.7066 49.7749 28.7733 49.235 28.7211 48.6999L28.7401 48.7179C28.6869 48.0879 28.7719 47.4539 28.9891 46.8601C29.2063 46.2663 29.5505 45.727 29.9977 45.2801C30.4449 44.8331 30.9843 44.4891 31.5782 44.2721C32.1721 44.0552 32.8061 43.9705 33.4361 44.0239L33.4172 44.0059C34.1704 44.0765 34.927 43.913 35.5839 43.5378C36.2408 43.1625 36.766 42.5938 37.0878 41.9092C37.4097 41.2245 37.5125 40.4573 37.3822 39.712C37.252 38.9668 36.8951 38.2799 36.3602 37.7449C35.8252 37.21 35.1383 36.8531 34.3931 36.7229C33.6478 36.5926 32.8806 36.6954 32.1959 37.0173C31.5113 37.3391 30.9425 37.8643 30.5673 38.5212C30.1921 39.1781 30.0286 39.9347 30.0991 40.6879L30.0812 40.6699C30.1343 41.2998 30.0494 41.9337 29.8323 42.5273C29.6152 43.1209 29.2712 43.6601 28.8242 44.107C28.3773 44.554 27.8381 44.898 27.2445 45.1151C26.6509 45.3322 26.017 45.4171 25.3871 45.3639L25.4051 45.3819C24.7897 45.3267 24.1703 45.4278 23.6043 45.6757C23.0384 45.9236 22.5441 46.3104 22.1674 46.8002C21.7907 47.29 21.5437 47.8669 21.4493 48.4776C21.3549 49.0882 21.4162 49.7128 21.6275 50.2935C21.8388 50.8741 22.1932 51.3921 22.6579 51.7993C23.1227 52.2065 23.6827 52.4898 24.286 52.623C24.8894 52.7562 25.5167 52.7349 26.1096 52.5611C26.7026 52.3873 27.2421 52.0667 27.6781 51.6289H27.6761Z" fill="#0D0E10"/>
<path d="M58.6523 41.655H61.6223V56.108H58.6523V41.655Z" fill="#0D0E10"/>
<path d="M63.3048 51.1589C63.3007 50.1202 63.6049 49.1037 64.1789 48.2381C64.7529 47.3725 65.5709 46.6967 66.5293 46.2963C67.4877 45.896 68.5433 45.7891 69.5625 45.9891C70.5817 46.1892 71.5186 46.6873 72.2545 47.4203C72.9904 48.1532 73.4923 49.0881 73.6964 50.1065C73.9006 51.1249 73.7979 52.1809 73.4014 53.1409C73.0049 54.1009 72.3324 54.9216 71.4691 55.4991C70.6058 56.0766 69.5905 56.3849 68.5518 56.3849C67.8624 56.3927 67.1783 56.2631 66.5395 56.0035C65.9007 55.7439 65.3201 55.3596 64.8316 54.873C64.3431 54.3864 63.9564 53.8074 63.6943 53.1697C63.4321 52.5319 63.2997 51.8484 63.3048 51.1589ZM70.8288 51.1589C70.8164 50.7112 70.6724 50.2771 70.4146 49.9108C70.1568 49.5445 69.7968 49.2624 69.3796 49.0996C68.9623 48.9369 68.5064 48.9007 68.0687 48.9957C67.631 49.0906 67.231 49.3125 66.9187 49.6336C66.6065 49.9546 66.3958 50.3606 66.313 50.8007C66.2302 51.2409 66.2789 51.6957 66.4532 52.1082C66.6275 52.5208 66.9195 52.8729 67.2928 53.1204C67.666 53.3679 68.104 53.4999 68.5518 53.4999C68.8586 53.5081 69.1636 53.4526 69.4479 53.337C69.7321 53.2214 69.9893 53.0482 70.2032 52.8282C70.4172 52.6083 70.5832 52.3464 70.6909 52.0591C70.7985 51.7718 70.8455 51.4652 70.8288 51.1589Z" fill="#0D0E10"/>
<path d="M85.6349 46.2088V55.6088C85.6349 58.9348 83.0409 60.3408 80.4079 60.3408C79.4808 60.4102 78.5526 60.2229 77.7249 59.7996C76.8973 59.3762 76.2022 58.7331 75.7159 57.9408L78.2499 56.4758C78.4543 56.8888 78.7799 57.2296 79.1833 57.4524C79.5866 57.6753 80.0484 57.7696 80.5069 57.7228C80.7999 57.7634 81.0983 57.7376 81.3799 57.6473C81.6616 57.557 81.9194 57.4046 82.1342 57.2012C82.349 56.9978 82.5153 56.7488 82.6208 56.4724C82.7264 56.1961 82.7684 55.8996 82.7439 55.6048V54.6998C82.3961 55.1254 81.9534 55.4634 81.4514 55.687C80.9493 55.9105 80.4018 56.0132 79.8529 55.9868C78.5467 55.9456 77.3078 55.3978 76.3984 54.4593C75.489 53.5207 74.9805 52.2652 74.9805 50.9583C74.9805 49.6515 75.489 48.3959 76.3984 47.4574C77.3078 46.5189 78.5467 45.971 79.8529 45.9298C80.4018 45.9035 80.9493 46.0062 81.4514 46.2297C81.9534 46.4532 82.3961 46.7913 82.7439 47.2168V46.2068L85.6349 46.2088ZM82.7449 50.9598C82.7648 50.4812 82.6411 50.0075 82.3896 49.5998C82.1381 49.1921 81.7703 48.8689 81.3336 48.672C80.8969 48.4751 80.4112 48.4133 79.9391 48.4947C79.467 48.5761 79.0301 48.797 78.6846 49.1288C78.3391 49.4606 78.1007 49.8882 78.0003 50.3567C77.8999 50.8251 77.9419 51.3128 78.121 51.7571C78.3001 52.2015 78.6081 52.582 79.0053 52.8498C79.4026 53.1176 79.8708 53.2604 80.3499 53.2598C80.6619 53.2816 80.9751 53.2378 81.2692 53.1312C81.5633 53.0246 81.8318 52.8576 82.0574 52.6409C82.283 52.4242 82.4607 52.1627 82.5792 51.8732C82.6976 51.5836 82.754 51.2725 82.7449 50.9598Z" fill="#0D0E10"/>
<path d="M87.3205 51.1589C87.3163 50.1202 87.6205 49.1037 88.1945 48.2381C88.7685 47.3725 89.5865 46.6967 90.5449 46.2963C91.5033 45.896 92.559 45.7891 93.5782 45.9891C94.5974 46.1892 95.5342 46.6873 96.2701 47.4203C97.0061 48.1532 97.5079 49.0881 97.712 50.1065C97.9162 51.1249 97.8135 52.1809 97.417 53.1409C97.0205 54.1009 96.348 54.9216 95.4847 55.4991C94.6214 56.0766 93.6061 56.3849 92.5674 56.3849C91.878 56.3927 91.1939 56.2631 90.5551 56.0035C89.9163 55.7439 89.3357 55.3596 88.8472 54.873C88.3587 54.3864 87.972 53.8074 87.7099 53.1697C87.4478 52.5319 87.3154 51.8484 87.3205 51.1589ZM94.8444 51.1589C94.8321 50.7112 94.688 50.2771 94.4302 49.9108C94.1724 49.5445 93.8124 49.2624 93.3952 49.0996C92.9779 48.9369 92.522 48.9007 92.0843 48.9957C91.6466 49.0906 91.2466 49.3125 90.9344 49.6336C90.6221 49.9546 90.4114 50.3606 90.3286 50.8007C90.2458 51.2409 90.2946 51.6957 90.4688 52.1082C90.6431 52.5208 90.9351 52.8729 91.3084 53.1204C91.6816 53.3679 92.1196 53.4999 92.5674 53.4999C92.8742 53.5081 93.1793 53.4526 93.4635 53.337C93.7477 53.2214 94.0049 53.0482 94.2188 52.8282C94.4328 52.6083 94.5988 52.3464 94.7065 52.0591C94.8142 51.7718 94.8611 51.4652 94.8444 51.1589Z" fill="#0D0E10"/>
<path d="M99.1992 43.5559C99.1992 43.2035 99.3037 42.859 99.4995 42.5659C99.6954 42.2729 99.9737 42.0444 100.299 41.9096C100.625 41.7747 100.983 41.7394 101.329 41.8082C101.675 41.8769 101.992 42.0466 102.241 42.2959C102.491 42.5451 102.66 42.8626 102.729 43.2083C102.798 43.554 102.762 43.9123 102.628 44.2379C102.493 44.5635 102.264 44.8418 101.971 45.0376C101.678 45.2334 101.334 45.3379 100.981 45.3379C100.51 45.3332 100.06 45.144 99.7263 44.8108C99.3932 44.4776 99.2039 44.0271 99.1992 43.5559ZM99.4992 46.2089H102.47V56.1089H99.4952L99.4992 46.2089Z" fill="#0D0E10"/>
<path d="M115.292 51.1588C115.326 51.8131 115.231 52.4677 115.011 53.085C114.791 53.7023 114.452 54.2701 114.012 54.7558C113.573 55.2414 113.041 55.6354 112.449 55.915C111.856 56.1945 111.214 56.3542 110.56 56.3848C110.009 56.4148 109.459 56.322 108.949 56.1131C108.439 55.9041 107.982 55.5843 107.611 55.1768V60.0678H104.641V46.2088H107.611V47.1388C107.982 46.7316 108.439 46.412 108.949 46.2033C109.459 45.9945 110.009 45.9018 110.56 45.9318C111.214 45.9623 111.856 46.1219 112.449 46.4015C113.042 46.681 113.573 47.0751 114.013 47.5609C114.453 48.0467 114.792 48.6147 115.012 49.2321C115.231 49.8496 115.326 50.5044 115.292 51.1588ZM112.322 51.1588C112.31 50.6955 112.162 50.2459 111.896 49.8662C111.63 49.4866 111.258 49.1938 110.827 49.0246C110.395 48.8553 109.924 48.817 109.471 48.9146C109.017 49.0121 108.603 49.2411 108.28 49.5729C107.956 49.9048 107.738 50.3246 107.651 50.78C107.565 51.2354 107.615 51.7061 107.795 52.1332C107.976 52.5602 108.278 52.9247 108.664 53.1809C109.05 53.4372 109.503 53.5738 109.967 53.5738C110.285 53.588 110.602 53.5347 110.899 53.4175C111.195 53.3003 111.463 53.1219 111.685 52.8939C111.907 52.6658 112.079 52.3934 112.189 52.0944C112.299 51.7953 112.344 51.4765 112.322 51.1588Z" fill="#0D0E10"/>
<path d="M124.456 53.1379C124.456 55.4149 122.477 56.3848 120.339 56.3848C119.475 56.4631 118.608 56.2804 117.849 55.8604C117.09 55.4404 116.474 54.8024 116.082 54.0289L118.655 52.5639C118.759 52.9214 118.983 53.2324 119.288 53.445C119.594 53.6576 119.964 53.7588 120.335 53.7318C121.047 53.7318 121.404 53.5139 121.404 53.1189C121.404 52.0289 116.533 52.6039 116.533 49.1789C116.533 47.0199 118.355 45.9319 120.414 45.9319C121.188 45.9074 121.954 46.0909 122.633 46.4635C123.312 46.836 123.879 47.3838 124.274 48.0499L121.74 49.4159C121.629 49.1565 121.444 48.9357 121.208 48.7808C120.972 48.6259 120.696 48.5438 120.414 48.5449C119.899 48.5449 119.582 48.7449 119.582 49.0989C119.586 50.2279 124.456 49.4749 124.456 53.1379Z" fill="#0D0E10"/>
<path d="M135.305 46.209V56.109H132.335V55.178C131.992 55.5888 131.557 55.9125 131.065 56.1225C130.573 56.3325 130.038 56.4228 129.505 56.386C127.505 56.386 125.805 54.961 125.805 52.286V46.209H128.775V51.851C128.75 52.0868 128.777 52.3251 128.853 52.5495C128.93 52.7739 129.055 52.9788 129.218 53.1502C129.382 53.3215 129.582 53.455 129.802 53.5415C130.023 53.628 130.26 53.6654 130.497 53.651C131.586 53.651 132.338 53.018 132.338 51.612V46.212L135.305 46.209Z" fill="#0D0E10"/>
<path d="M152.337 50.03V56.108H149.367V50.287C149.367 49.297 148.892 48.664 147.942 48.664C146.952 48.664 146.397 49.357 146.397 50.525V56.108H143.428V50.287C143.428 49.297 142.953 48.664 142.002 48.664C141.012 48.664 140.458 49.357 140.458 50.525V56.108H137.488V46.208H140.458V47.118C140.766 46.7143 141.17 46.3941 141.634 46.1868C142.097 45.9794 142.605 45.8915 143.111 45.931C143.619 45.9061 144.125 46.0134 144.58 46.2422C145.034 46.4711 145.422 46.8138 145.704 47.237C146.033 46.7943 146.469 46.4423 146.971 46.2139C147.474 45.9855 148.025 45.8882 148.575 45.931C150.848 45.932 152.337 47.555 152.337 50.03Z" fill="#0D0E10"/>
<path d="M154.849 46.148C156.066 46.148 157.053 45.1612 157.053 43.944C157.053 42.7268 156.066 41.74 154.849 41.74C153.631 41.74 152.645 42.7268 152.645 43.944C152.645 45.1612 153.631 46.148 154.849 46.148Z" fill="#0D0E10"/>
</svg>
