<svg width="178" height="48" viewBox="0 0 178 48" fill="none" xmlns="http://www.w3.org/2000/svg">
<path d="M10.7637 4.04688V39.4999H169.342V4.04688H10.7637ZM167.342 37.4999H86.3417V6.04687H167.342V37.4999Z" fill="#0D0E10"/>
<path d="M19.1914 27.7128V15.9258H23.2594V24.5738H30.4354V27.7128H19.1914Z" fill="white"/>
<path d="M46.4738 21.7373C46.4738 25.4903 44.1318 27.8933 38.5608 27.8933C33.5008 27.8933 30.6328 25.8213 30.6328 21.7373C30.6328 18.1183 33.3668 15.6562 38.5608 15.6562C43.8358 15.6562 46.4738 17.9233 46.4738 21.7373ZM42.3898 21.7823C42.3898 20.0823 41.6838 18.7193 38.5458 18.7193C35.6778 18.7193 34.7458 19.9353 34.7458 21.7823C34.7458 23.6593 35.6008 24.8753 38.5588 24.8753C41.5358 24.8753 42.3898 23.5843 42.3898 21.7823Z" fill="white"/>
<path d="M59.0582 27.7138L58.9532 26.5718C57.5924 27.543 55.936 28.0104 54.2682 27.8938C51.7612 27.8938 49.6732 27.1428 48.5022 25.6268C47.7299 24.52 47.3398 23.1914 47.3912 21.8428C47.3474 20.5225 47.7508 19.226 48.5362 18.1638C49.7212 16.6928 51.8692 15.7168 55.0672 15.7168C58.7462 15.7168 60.9082 16.8428 61.8382 18.7348C62.0379 19.1804 62.1551 19.6584 62.1842 20.1458H58.2922C58.1942 19.8496 58.0117 19.5886 57.7672 19.3948C56.992 18.8808 56.0662 18.643 55.1392 18.7198C54.5955 18.6539 54.044 18.7041 53.5212 18.8672C52.9983 19.0303 52.516 19.3025 52.1062 19.6658C51.6409 20.3028 51.4223 21.0869 51.4912 21.8728C51.4373 22.6225 51.6381 23.3685 52.0612 23.9898C52.4748 24.3751 52.9664 24.6669 53.5026 24.8457C54.0388 25.0244 54.6072 25.0858 55.1692 25.0258C56.2856 25.1166 57.3938 24.7723 58.2622 24.0648C58.4488 23.8316 58.5773 23.5574 58.6372 23.2648H54.4492V20.7318H62.2862V27.7138H59.0582Z" fill="white"/>
<path d="M79.2687 21.7373C79.2687 25.4903 76.9257 27.8933 71.3557 27.8933C66.2957 27.8933 63.4277 25.8213 63.4277 21.7373C63.4277 18.1183 66.1617 15.6562 71.3557 15.6562C76.6267 15.6562 79.2687 17.9233 79.2687 21.7373ZM75.1847 21.7823C75.1847 20.0823 74.4787 18.7193 71.3407 18.7193C68.4727 18.7193 67.5407 19.9353 67.5407 21.7823C67.5407 23.6593 68.3967 24.8753 71.3537 24.8753C74.3297 24.8753 75.1847 23.5843 75.1847 21.7823Z" fill="white"/>
<path d="M93.1934 27.6679V15.8809H96.0934V27.6679H93.1934Z" fill="#0D0E10"/>
<path d="M110.986 22.7436C110.251 23.7046 108.986 24.1436 107.203 24.1546C106.827 24.1546 101.842 24.1396 101.842 24.1396V27.6686H99.0039V15.8816H107.204C107.861 15.8121 108.526 15.8818 109.154 16.0861C109.783 16.2904 110.361 16.6249 110.852 17.0676C111.5 17.9118 111.815 18.9643 111.738 20.0256C111.804 20.9908 111.539 21.9496 110.986 22.7436ZM108.659 18.9006C108.359 18.4506 107.712 18.2006 106.617 18.2006H101.827V21.7886H106.586C107.757 21.7886 108.374 21.5486 108.659 21.0826C108.828 20.7543 108.901 20.3846 108.869 20.0166C108.894 19.6328 108.822 19.2489 108.659 18.9006Z" fill="#0D0E10"/>
<path d="M120.101 27.8482C114.755 27.8482 113.119 25.8482 113.119 23.8692H116.152C116.152 24.8452 117.488 25.5812 120.236 25.5812C122.968 25.5812 123.689 25.1002 123.689 24.3192C123.689 23.4482 123.149 23.1782 120.611 22.8932C120.111 22.8482 118.75 22.6832 118.239 22.6082C114.639 22.2022 113.253 21.1362 113.253 19.2292C113.253 17.2172 115.281 15.7012 119.68 15.7012C124.455 15.7012 126.287 17.5782 126.287 19.5302H123.287C123.287 18.5392 122.161 17.9682 119.503 17.9682C116.77 17.9682 116.185 18.3432 116.185 19.0792C116.185 19.8452 116.785 20.0852 119.685 20.4302C120.346 20.5212 121.817 20.6862 122.222 20.7302C125.286 21.0452 126.667 22.1562 126.667 24.1232C126.662 26.4662 124.56 27.8482 120.101 27.8482Z" fill="#0D0E10"/>
<path d="M135.205 27.8329C131.287 27.8329 128.734 26.2859 128.734 23.0329V15.8809H131.601V23.0729C131.601 24.5599 132.818 25.5499 135.325 25.5499C137.592 25.5499 138.944 24.6199 138.944 23.0729V15.8809H141.782V23.2999C141.782 26.2569 139.409 27.8329 135.205 27.8329Z" fill="#0D0E10"/>
<path d="M157.323 27.6679V19.7999L153.644 27.6679H150.852L147.278 19.7999V27.6679H144.578V15.8809H148.236L152.29 24.8599L156.434 15.8809H160.034V27.6679H157.323Z" fill="#0D0E10"/>
</svg>
