<svg width="179" height="100" viewBox="0 0 179 100" fill="none" xmlns="http://www.w3.org/2000/svg">
<path d="M65.2383 44.9183H68.0803V56.428H65.2383V44.9183ZM69.2135 52.0986C69.2135 49.2477 70.9842 47.539 73.6403 47.539C76.2964 47.539 78.0671 49.2477 78.0671 52.0986C78.0671 54.9494 76.3584 56.6759 73.6403 56.6759C70.9223 56.6759 69.2135 55.0114 69.2135 52.0986ZM75.2517 52.0986C75.2517 50.5315 74.6408 49.6107 73.6669 49.6107C72.693 49.6107 72.0909 50.4961 72.0909 52.0986C72.0909 53.7011 72.693 54.5776 73.6669 54.5776C74.6408 54.5776 75.2694 53.7011 75.2694 52.1074L75.2517 52.0986ZM79.2003 57.0212H81.945C82.0699 57.3166 82.2881 57.5632 82.5663 57.723C82.8445 57.8829 83.1673 57.9473 83.4855 57.9065C84.5745 57.9065 85.1411 57.3222 85.1411 56.4545V54.8609H85.1499C84.9154 55.3571 84.5361 55.7707 84.0621 56.0473C83.588 56.3238 83.0413 56.4504 82.4939 56.4103C80.4133 56.4103 79.0321 54.8255 79.0321 52.0986C79.0321 49.3717 80.3513 47.6718 82.5736 47.6718C83.135 47.6418 83.6919 47.7865 84.1676 48.0862C84.6433 48.3859 85.0143 48.8258 85.2296 49.3451H85.1499V47.7426H87.9654V56.366C87.9654 58.4466 86.1238 59.7481 83.4146 59.7481C80.9534 59.7392 79.3774 58.6148 79.2181 57.03L79.2003 57.0212ZM85.1499 52.0986C85.1499 50.7086 84.5125 49.8321 83.5032 49.8321C82.4939 49.8321 81.8741 50.7174 81.8741 52.0986C81.8741 53.4797 82.485 54.2943 83.5032 54.2943C84.5213 54.2943 85.1499 53.5417 85.1499 52.0986ZM89.0898 52.0986C89.0898 49.2477 90.8605 47.539 93.5166 47.539C96.1726 47.539 97.9433 49.2477 97.9433 52.0986C97.9433 54.9494 96.2257 56.6759 93.5166 56.6759C90.8074 56.6759 89.1075 55.0114 89.1075 52.0986H89.0898ZM95.1279 52.0986C95.1279 50.5315 94.5082 49.6107 93.5431 49.6107C92.5781 49.6107 91.9672 50.4961 91.9672 52.0986C91.9672 53.7011 92.5692 54.5776 93.5431 54.5776C94.517 54.5776 95.1456 53.7011 95.1456 52.1074L95.1279 52.0986ZM99.0943 45.6443C99.0819 45.3548 99.1565 45.0682 99.3083 44.8215C99.4601 44.5746 99.6824 44.379 99.9464 44.2595C100.21 44.14 100.504 44.1023 100.79 44.1512C101.075 44.2 101.34 44.3331 101.549 44.5335C101.758 44.7339 101.903 44.9923 101.964 45.2755C102.025 45.5587 102 45.8538 101.893 46.1227C101.785 46.3917 101.599 46.6222 101.359 46.7847C101.119 46.9471 100.836 47.0341 100.546 47.0343C100.361 47.039 100.177 47.0069 100.004 46.9399C99.8315 46.8728 99.6739 46.772 99.5404 46.6435C99.407 46.5151 99.3004 46.3614 99.2269 46.1913C99.1534 46.0213 99.1143 45.8384 99.112 45.6532L99.0943 45.6443ZM99.0943 47.7338H101.972V56.4634H99.1386L99.0943 47.7338ZM112.322 52.0986C112.322 54.9406 111.047 56.5873 108.877 56.5873C108.322 56.6216 107.77 56.4845 107.295 56.1948C106.82 55.9051 106.445 55.4766 106.221 54.9671H106.168V59.27H103.326V47.7603H106.151V49.3186H106.204C106.42 48.7991 106.791 48.3588 107.266 48.0578C107.741 47.7568 108.298 47.6096 108.86 47.6364C111.091 47.6187 112.375 49.2566 112.375 52.1074L112.322 52.0986ZM109.426 52.0986C109.426 50.7174 108.78 49.8232 107.78 49.8232C106.779 49.8232 106.151 50.7086 106.142 52.0986C106.133 53.4886 106.779 54.3651 107.78 54.3651C108.78 54.3651 109.48 53.5417 109.48 52.1074L109.426 52.0986ZM117.173 47.5301C119.555 47.5301 121.033 48.6545 121.051 50.4607H118.457C118.457 49.8321 117.935 49.4425 117.156 49.4425C116.376 49.4425 116.005 49.7435 116.005 50.1951C116.005 50.6466 116.332 50.7882 116.987 50.921L118.811 51.2929C120.582 51.6647 121.29 52.373 121.29 53.6922C121.29 55.4629 119.652 56.667 117.218 56.667C114.783 56.667 113.198 55.4983 113.083 53.7188H115.836C115.916 54.3651 116.43 54.7458 117.262 54.7458C118.094 54.7458 118.484 54.4802 118.484 54.0109C118.484 53.5417 118.218 53.462 117.536 53.3204L115.89 52.9751C114.181 52.6121 113.287 51.7179 113.287 50.381C113.34 48.6457 114.827 47.539 117.226 47.539L117.173 47.5301ZM130.808 56.4545H128.054V54.8166H128.001C127.847 55.363 127.512 55.8404 127.049 56.1703C126.587 56.5003 126.027 56.6629 125.46 56.6316C125.033 56.6455 124.606 56.5688 124.21 56.4064C123.814 56.2442 123.457 55.9999 123.162 55.6898C122.866 55.3795 122.64 55.0104 122.498 54.6067C122.355 54.203 122.299 53.7736 122.335 53.3469V47.7426H125.177V52.736C125.177 53.763 125.717 54.3208 126.602 54.3208C126.81 54.3192 127.015 54.2731 127.203 54.1856C127.392 54.0981 127.559 53.9711 127.694 53.8133C127.829 53.6556 127.929 53.4706 127.987 53.271C128.044 53.0714 128.058 52.8618 128.028 52.6563V47.7426H130.861L130.808 56.4545ZM132.18 47.7338H134.942V49.4159H135.004C135.157 48.877 135.484 48.404 135.934 48.0707C136.385 47.7376 136.933 47.563 137.492 47.5744C138.054 47.5255 138.615 47.6881 139.063 48.0303C139.512 48.3725 139.816 48.8698 139.918 49.4248H140.042C140.219 48.8668 140.575 48.3828 141.056 48.0482C141.536 47.7136 142.114 47.547 142.698 47.5744C143.087 47.5596 143.475 47.6271 143.835 47.7724C144.196 47.9176 144.522 48.1374 144.792 48.4174C145.062 48.6974 145.269 49.0313 145.401 49.3971C145.534 49.7629 145.587 50.1525 145.558 50.5403V56.4634H142.698V51.2663C142.698 50.381 142.282 49.8852 141.476 49.8852C141.297 49.8823 141.12 49.918 140.957 49.9899C140.793 50.0619 140.648 50.1684 140.529 50.3021C140.41 50.4359 140.322 50.5936 140.27 50.7646C140.218 50.9357 140.204 51.1158 140.228 51.2929V56.4634H137.519V51.2398C137.519 50.3544 137.085 49.8852 136.306 49.8852C136.125 49.8838 135.946 49.9209 135.782 49.9943C135.616 50.0677 135.469 50.1754 135.349 50.3104C135.229 50.4454 135.14 50.6045 135.087 50.777C135.033 50.9496 135.017 51.1315 135.04 51.3106V56.4634H132.198L132.18 47.7338Z" fill="#0D0E10"/>
<path d="M59.6169 45.6708C59.617 43.9087 59.0849 42.1876 58.0903 40.733C57.0957 39.2785 55.6849 38.1582 54.0428 37.5189C52.4008 36.8797 50.6038 36.7513 48.8876 37.1506C47.1712 37.5499 45.6156 38.4582 44.4242 39.7567H33.375V63.0769H56.7041V52.1782C57.6198 51.3592 58.3525 50.3564 58.8544 49.2351C59.3563 48.1138 59.6161 46.8994 59.6169 45.6708ZM55.1282 45.6708C55.13 46.5152 54.8812 47.3412 54.4133 48.0441C53.9454 48.747 53.2796 49.2954 52.5 49.6197C51.7204 49.9441 50.8621 50.0299 50.0337 49.8662C49.2053 49.7026 48.4441 49.2968 47.8464 48.7003C47.2487 48.1039 46.8414 47.3435 46.676 46.5155C46.5107 45.6875 46.5947 44.829 46.9174 44.0487C47.2401 43.2684 47.7871 42.6014 48.489 42.1321C49.191 41.6628 50.0164 41.4123 50.8608 41.4123C51.991 41.4123 53.0751 41.8607 53.8751 42.659C54.6752 43.4574 55.1259 44.5406 55.1282 45.6708ZM52.2154 58.5882H37.8638V44.2454H42.2374C42.1529 44.716 42.1085 45.1928 42.1046 45.6708C42.107 47.9924 43.0302 50.2182 44.6719 51.8598C46.3134 53.5014 48.5392 54.4247 50.8608 54.427C51.3147 54.4246 51.7676 54.3861 52.2154 54.3119V58.5882Z" fill="#0D0E10"/>
</svg>
