<svg width="178" height="48" viewBox="0 0 178 48" fill="none" xmlns="http://www.w3.org/2000/svg">
<path d="M60.1852 34.0206C59.3789 34.0643 58.5813 33.8351 57.9212 33.3699C57.6454 33.1654 57.4235 32.8969 57.2747 32.5875C57.1259 32.2781 57.0546 31.9371 57.0671 31.5939V19.0267C57.0605 18.9735 57.0662 18.9195 57.0836 18.8688C57.101 18.8181 57.1298 18.772 57.1677 18.7341C57.2056 18.6962 57.2517 18.6674 57.3024 18.65C57.3531 18.6326 57.4071 18.6269 57.4603 18.6335H59.7378C59.9954 18.6335 60.1174 18.7691 60.1174 19.0267V30.6178C60.1174 31.133 60.3479 31.3906 60.8224 31.3906C61.0235 31.3989 61.2247 31.376 61.4189 31.3228C61.69 31.3228 61.8392 31.4041 61.8527 31.6482L62.0561 33.3428C62.0658 33.3922 62.0649 33.4431 62.0533 33.4921C62.0418 33.5411 62.0198 33.5871 61.989 33.6269C61.9582 33.6668 61.9192 33.6995 61.8746 33.723C61.83 33.7465 61.781 33.7601 61.7307 33.763C61.2318 33.9278 60.7105 34.0147 60.1852 34.0206Z" fill="#0D0E10"/>
<path d="M72.9953 32.5717C71.8509 33.5173 70.4128 34.0345 68.9283 34.0345C67.4437 34.0345 66.0056 33.5173 64.8612 32.5717C63.8553 31.5563 63.291 30.1847 63.291 28.7554C63.291 27.3261 63.8553 25.9546 64.8612 24.9392C66.0078 23.9985 67.4451 23.4844 68.9283 23.4844C70.4114 23.4844 71.8487 23.9985 72.9953 24.9392C73.978 25.964 74.5267 27.3289 74.5267 28.7487C74.5267 30.1685 73.978 31.5334 72.9953 32.5582V32.5717ZM67.0032 30.7822C67.5343 31.2633 68.2252 31.5297 68.9418 31.5297C69.6584 31.5297 70.3494 31.2633 70.8804 30.7822C71.3611 30.2295 71.6258 29.5218 71.6258 28.7893C71.6258 28.0569 71.3611 27.3491 70.8804 26.7965C70.3494 26.3154 69.6584 26.0489 68.9418 26.0489C68.2252 26.0489 67.5343 26.3154 67.0032 26.7965C66.5225 27.3491 66.2578 28.0569 66.2578 28.7893C66.2578 29.5218 66.5225 30.2295 67.0032 30.7822Z" fill="#0D0E10"/>
<path d="M87.0673 23.8249C87.3249 23.8249 87.4469 23.9605 87.4469 24.2181V33.9384C87.4706 34.5945 87.3478 35.2475 87.0876 35.8502C86.8273 36.4529 86.436 36.99 85.9421 37.4225C84.8459 38.3572 83.4362 38.8416 81.9971 38.7782C80.6971 38.8239 79.4146 38.469 78.3231 37.7615C77.8571 37.4554 77.4589 37.0568 77.1534 36.5903C76.8479 36.1239 76.6415 35.5996 76.5472 35.0501C76.5472 34.7789 76.5472 34.6569 76.9132 34.6569H79.1908C79.2875 34.6602 79.3812 34.6914 79.4605 34.7467C79.5399 34.802 79.6016 34.8791 79.6382 34.9687C79.7859 35.3805 80.0803 35.7232 80.4651 35.9313C80.9341 36.1732 81.4559 36.2944 81.9835 36.2837C82.3018 36.3012 82.6204 36.255 82.9207 36.1479C83.221 36.0409 83.4969 35.875 83.7323 35.6601C83.9474 35.4353 84.1148 35.1693 84.2243 34.878C84.3338 34.5868 84.3832 34.2764 84.3695 33.9655V33.1114C83.554 33.7112 82.5616 34.0214 81.5497 33.9926C80.8415 34.0184 80.1354 33.9008 79.4737 33.6468C78.8121 33.3929 78.2086 33.0079 77.6995 32.5149C76.7221 31.5038 76.1758 30.1524 76.1758 28.7461C76.1758 27.3398 76.7221 25.9884 77.6995 24.9773C78.2111 24.4887 78.8153 24.1074 79.4766 23.8559C80.1378 23.6045 80.8427 23.4879 81.5497 23.5131C82.5909 23.4856 83.61 23.8158 84.4373 24.4486V24.2317C84.4311 24.1797 84.4365 24.127 84.4532 24.0774C84.4698 24.0278 84.4974 23.9825 84.5337 23.9449C84.5701 23.9073 84.6143 23.8782 84.6633 23.8598C84.7123 23.8414 84.7648 23.8341 84.8169 23.8385L87.0673 23.8249ZM81.8073 31.5795C82.1565 31.5903 82.5039 31.5243 82.8248 31.3861C83.1458 31.2478 83.4324 31.0408 83.6646 30.7796C84.1153 30.1976 84.3598 29.4823 84.3598 28.7461C84.3598 28.0099 84.1153 27.2946 83.6646 26.7126C83.4332 26.4549 83.1483 26.251 82.8298 26.1151C82.5113 25.9793 82.1669 25.9148 81.8208 25.9263C81.4675 25.9152 81.116 25.9809 80.7907 26.119C80.4653 26.2571 80.1738 26.4643 79.9364 26.7261C79.4371 27.2829 79.1745 28.0124 79.2043 28.7597C79.1799 29.4996 79.4366 30.2214 79.9229 30.7796C80.1609 31.0408 80.4524 31.2474 80.7777 31.3855C81.1029 31.5235 81.4541 31.5897 81.8073 31.5795Z" fill="#0D0E10"/>
<path d="M99.1472 32.5697C98.0006 33.5104 96.5633 34.0245 95.0801 34.0245C93.597 34.0245 92.1597 33.5104 91.0131 32.5697C90.0295 31.5426 89.4805 30.1755 89.4805 28.7534C89.4805 27.3314 90.0295 25.9642 91.0131 24.9372C92.1608 23.9989 93.5977 23.4863 95.0801 23.4863C96.5626 23.4863 97.9995 23.9989 99.1472 24.9372C100.13 25.9619 100.679 27.3268 100.679 28.7466C100.679 30.1665 100.13 31.5313 99.1472 32.5561V32.5697ZM93.1415 30.7802C93.4014 31.0274 93.7078 31.2206 94.0429 31.3486C94.378 31.4766 94.7352 31.5368 95.0937 31.5258C95.45 31.535 95.8046 31.4739 96.1373 31.346C96.4699 31.2181 96.7741 31.0258 97.0323 30.7802C97.5052 30.2238 97.7648 29.5175 97.7648 28.7873C97.7648 28.0572 97.5052 27.3508 97.0323 26.7945C96.7741 26.5489 96.4699 26.3566 96.1373 26.2286C95.8046 26.1007 95.45 26.0396 95.0937 26.0488C94.7352 26.0378 94.378 26.098 94.0429 26.226C93.7078 26.354 93.4014 26.5472 93.1415 26.7945C92.6687 27.3508 92.4091 28.0572 92.4091 28.7873C92.4091 29.5175 92.6687 30.2238 93.1415 30.7802Z" fill="#0D0E10"/>
<path d="M105.573 21.5217C105.214 21.8354 104.754 22.0083 104.278 22.0083C103.802 22.0083 103.342 21.8354 102.983 21.5217C102.821 21.3684 102.691 21.1835 102.603 20.9783C102.514 20.7732 102.469 20.5521 102.469 20.3287C102.469 20.1053 102.514 19.8843 102.603 19.6791C102.691 19.474 102.821 19.2891 102.983 19.1357C103.345 18.8299 103.804 18.6621 104.278 18.6621C104.752 18.6621 105.211 18.8299 105.573 19.1357C105.735 19.2891 105.865 19.474 105.953 19.6791C106.042 19.8843 106.087 20.1053 106.087 20.3287C106.087 20.5521 106.042 20.7732 105.953 20.9783C105.865 21.1835 105.735 21.3684 105.573 21.5217ZM105.857 34.0212C105.051 34.0607 104.255 33.8318 103.593 33.3705C103.322 33.163 103.104 32.8935 102.957 32.5845C102.811 32.2756 102.741 31.9361 102.753 31.5945V24.2195C102.746 24.1663 102.752 24.1123 102.769 24.0616C102.787 24.0109 102.815 23.9649 102.853 23.927C102.891 23.8891 102.937 23.8603 102.988 23.8429C103.039 23.8254 103.093 23.8198 103.146 23.8264H105.424C105.681 23.8264 105.803 23.962 105.803 24.2195V30.6184C105.803 31.1336 106.034 31.3911 106.495 31.3911C106.7 31.3985 106.906 31.3757 107.105 31.3234C107.376 31.3234 107.525 31.4047 107.538 31.6487L107.742 33.3433C107.752 33.3927 107.751 33.4437 107.739 33.4927C107.727 33.5417 107.706 33.5877 107.675 33.6275C107.644 33.6673 107.605 33.7001 107.56 33.7236C107.516 33.747 107.467 33.7607 107.416 33.7636C106.913 33.9293 106.387 34.0162 105.857 34.0212Z" fill="#0D0E10"/>
<path d="M116.12 23.502C116.832 23.4738 117.542 23.589 118.208 23.8405C118.874 24.092 119.482 24.4748 119.998 24.9661C120.956 25.995 121.489 27.349 121.489 28.7553C121.489 30.1615 120.956 31.5155 119.998 32.5444C119.485 33.0401 118.877 33.4266 118.21 33.6806C117.544 33.9346 116.833 34.0508 116.12 34.0221C115.105 34.0447 114.11 33.7353 113.287 33.1409V38.035C113.287 38.2925 113.151 38.4146 112.894 38.4146H110.616C110.564 38.4243 110.511 38.4212 110.46 38.4055C110.41 38.3899 110.364 38.3622 110.326 38.3248C110.289 38.2874 110.261 38.2415 110.246 38.191C110.23 38.1405 110.227 38.0869 110.237 38.035V26.9183C110.253 26.8096 110.243 26.6986 110.208 26.5943C110.174 26.49 110.115 26.3952 110.038 26.3174C109.96 26.2397 109.865 26.1813 109.761 26.1467C109.657 26.1122 109.546 26.1025 109.437 26.1184H108.989C108.691 26.1184 108.542 26.01 108.542 25.7931V24.1934C108.535 24.0944 108.562 23.996 108.619 23.9146C108.676 23.8331 108.759 23.7736 108.854 23.746C109.323 23.5755 109.819 23.4928 110.318 23.502C110.816 23.4579 111.315 23.5634 111.752 23.8049C112.189 24.0465 112.544 24.413 112.772 24.8576C113.209 24.4159 113.731 24.0679 114.306 23.8348C114.882 23.6017 115.499 23.4884 116.12 23.502ZM114.006 30.782C114.247 31.0346 114.538 31.2357 114.859 31.373C115.181 31.5104 115.527 31.5812 115.876 31.5812C116.226 31.5812 116.572 31.5104 116.894 31.373C117.215 31.2357 117.505 31.0346 117.747 30.782C118.256 30.2141 118.524 29.4699 118.493 28.7078C118.528 27.945 118.26 27.1992 117.747 26.6336C117.505 26.381 117.215 26.1799 116.894 26.0426C116.572 25.9052 116.226 25.8344 115.876 25.8344C115.527 25.8344 115.181 25.9052 114.859 26.0426C114.538 26.1799 114.247 26.381 114.006 26.6336C113.512 27.2092 113.255 27.9504 113.287 28.7078C113.26 29.4646 113.516 30.2044 114.006 30.782Z" fill="#0D0E10"/>
<path d="M127.887 34.0208C126.67 34.0709 125.463 33.7797 124.403 33.1803C123.977 32.9241 123.615 32.5753 123.343 32.1599C123.07 31.7445 122.895 31.2731 122.83 30.7808C122.83 30.5096 122.925 30.374 123.223 30.374H125.216C125.311 30.3777 125.403 30.4075 125.482 30.4602C125.561 30.5128 125.624 30.5862 125.663 30.6723C125.948 31.4044 126.694 31.7704 127.887 31.7704C128.303 31.7894 128.717 31.7056 129.093 31.5264C129.223 31.4678 129.335 31.375 129.416 31.258C129.497 31.141 129.545 31.0042 129.554 30.8621C129.554 30.5096 129.337 30.2656 128.904 30.1029C128.389 29.9316 127.857 29.818 127.317 29.764C126.678 29.6916 126.044 29.5784 125.419 29.4251C124.812 29.2875 124.259 28.9712 123.833 28.5168C123.582 28.2079 123.398 27.8507 123.291 27.4674C123.184 27.0841 123.157 26.6829 123.211 26.2887C123.266 25.8945 123.401 25.5158 123.608 25.1761C123.816 24.8364 124.091 24.543 124.416 24.3141C125.393 23.6916 126.54 23.3884 127.697 23.4465C128.817 23.4086 129.926 23.6857 130.896 24.2463C131.288 24.4679 131.624 24.7739 131.882 25.1421C132.14 25.5103 132.313 25.9314 132.388 26.3748C132.388 26.6459 132.266 26.7815 132.022 26.7815H130.015C129.931 26.7865 129.847 26.7659 129.774 26.7223C129.702 26.6788 129.644 26.6143 129.609 26.5374C129.474 26.2163 129.222 25.9591 128.904 25.8189C128.544 25.6309 128.143 25.5376 127.738 25.5478C127.34 25.5262 126.944 25.6055 126.585 25.7783C126.459 25.827 126.35 25.9124 126.273 26.0236C126.196 26.1347 126.153 26.2665 126.152 26.4019C126.16 26.5873 126.228 26.765 126.345 26.909C126.462 27.0529 126.622 27.1555 126.802 27.2017C127.323 27.3979 127.864 27.5344 128.416 27.6084C129.05 27.6919 129.679 27.8095 130.3 27.9609C130.908 28.0984 131.46 28.4148 131.886 28.8692C132.114 29.1196 132.29 29.4126 132.404 29.7314C132.518 30.0502 132.568 30.3884 132.55 30.7265C132.562 31.1952 132.452 31.6588 132.231 32.0723C132.01 32.4857 131.686 32.8348 131.29 33.0854C130.277 33.7357 129.09 34.062 127.887 34.0208Z" fill="#0D0E10"/>
<path d="M146.881 33.3451C146.888 33.3932 146.886 33.4424 146.875 33.4897C146.863 33.5371 146.842 33.5816 146.813 33.6208C146.784 33.6599 146.748 33.6929 146.706 33.7177C146.664 33.7425 146.617 33.7587 146.569 33.7653C146.074 33.9269 145.558 34.0138 145.037 34.0229C144.522 34.0763 144.001 33.9957 143.526 33.7891C143.051 33.5825 142.638 33.2568 142.326 32.8435C141.368 33.6668 140.13 34.0892 138.869 34.0229C138.283 34.0499 137.698 33.9541 137.152 33.7416C136.606 33.5292 136.11 33.2047 135.696 32.7892C135.286 32.3539 134.967 31.8401 134.76 31.2787C134.552 30.7173 134.461 30.1198 134.49 29.522V24.2213C134.49 23.9637 134.612 23.8281 134.869 23.8281H137.147C137.404 23.8281 137.526 23.9637 137.526 24.2213V29.1153C137.502 29.7251 137.71 30.3213 138.109 30.7828C138.309 30.9942 138.551 31.1605 138.82 31.2704C139.089 31.3803 139.378 31.4313 139.668 31.42C139.966 31.433 140.262 31.387 140.542 31.2846C140.821 31.1822 141.077 31.0255 141.295 30.8235C141.502 30.6106 141.663 30.3576 141.767 30.0801C141.872 29.8026 141.919 29.5066 141.905 29.2102V24.2213C141.905 23.9637 142.027 23.8281 142.285 23.8281H144.59C144.847 23.8281 144.969 23.9637 144.969 24.2213V30.6066C144.969 31.1353 145.2 31.3929 145.647 31.3929C145.857 31.401 146.067 31.3782 146.271 31.3251C146.322 31.3107 146.376 31.3081 146.428 31.3176C146.48 31.327 146.53 31.3481 146.573 31.3794C146.616 31.4107 146.652 31.4514 146.677 31.4983C146.702 31.5453 146.716 31.5973 146.718 31.6505L146.881 33.3451Z" fill="#0D0E10"/>
<path d="M168.423 33.3438C168.435 33.3923 168.437 33.4429 168.427 33.492C168.417 33.541 168.397 33.5873 168.367 33.6275C168.337 33.6677 168.299 33.7007 168.254 33.7243C168.21 33.748 168.162 33.7615 168.112 33.764C167.608 33.9279 167.082 34.0147 166.553 34.0216C165.746 34.0632 164.95 33.8342 164.289 33.3709C164.003 33.1724 163.77 32.9065 163.612 32.5967C163.453 32.2869 163.374 31.9428 163.38 31.5949V28.4091C163.409 27.8011 163.205 27.2051 162.811 26.7416C162.621 26.5297 162.386 26.3626 162.123 26.2524C161.861 26.1422 161.577 26.0917 161.292 26.1044C161.036 26.0947 160.781 26.1433 160.546 26.2467C160.311 26.35 160.103 26.5053 159.937 26.7009C159.579 27.1552 159.396 27.7229 159.422 28.3006V33.3031C159.422 33.5607 159.3 33.6963 159.042 33.6963H156.751C156.698 33.7028 156.644 33.6972 156.593 33.6798C156.542 33.6624 156.496 33.6336 156.458 33.5957C156.42 33.5578 156.392 33.5117 156.374 33.461C156.357 33.4103 156.351 33.3563 156.358 33.3031V28.4091C156.387 27.8078 156.2 27.2159 155.829 26.7416C155.664 26.5423 155.457 26.3819 155.222 26.2718C154.988 26.1616 154.732 26.1045 154.473 26.1044C154.197 26.0932 153.921 26.1406 153.664 26.2434C153.407 26.3462 153.175 26.5021 152.982 26.7009C152.594 27.1407 152.395 27.7151 152.426 28.3006V33.3031C152.433 33.3563 152.427 33.4103 152.41 33.461C152.392 33.5117 152.364 33.5578 152.326 33.5957C152.288 33.6336 152.242 33.6624 152.191 33.6798C152.14 33.6972 152.086 33.7028 152.033 33.6963H149.823C149.566 33.6963 149.444 33.5607 149.444 33.3031V26.9178C149.46 26.8091 149.45 26.6981 149.415 26.5938C149.381 26.4895 149.322 26.3946 149.245 26.3169C149.167 26.2392 149.072 26.1808 148.968 26.1462C148.864 26.1117 148.753 26.102 148.644 26.1179H148.197C147.898 26.1179 147.749 26.0095 147.749 25.7926V24.1929C147.742 24.0939 147.769 23.9955 147.826 23.9141C147.883 23.8326 147.966 23.7731 148.061 23.7455C148.53 23.575 149.026 23.4923 149.525 23.5015C150.004 23.4607 150.485 23.5561 150.912 23.7768C151.339 23.9975 151.695 24.3344 151.938 24.7487C152.396 24.3152 152.937 23.9807 153.53 23.7661C154.122 23.5515 154.753 23.4614 155.382 23.5015C155.992 23.4716 156.602 23.5862 157.16 23.8359C157.718 24.0856 158.21 24.4633 158.595 24.9385C159.043 24.4509 159.595 24.069 160.209 23.8205C160.823 23.572 161.485 23.463 162.147 23.5015C162.738 23.4738 163.329 23.5691 163.882 23.7814C164.435 23.9938 164.938 24.3185 165.36 24.7351C165.771 25.1696 166.091 25.6832 166.298 26.2449C166.506 26.8065 166.597 27.4044 166.566 28.0023V30.6188C166.566 31.134 166.797 31.3916 167.23 31.3916C167.441 31.4014 167.651 31.3785 167.854 31.3238C168.134 31.3238 168.283 31.4322 168.301 31.6492L168.423 33.3438Z" fill="#0D0E10"/>
<path d="M9.45427 22.0648C10.4545 18.0447 12.7709 14.4748 16.0347 11.9236C19.2985 9.3723 23.322 7.98633 27.4646 7.98633C31.6072 7.98633 35.6308 9.3723 38.8946 11.9236C42.1584 14.4748 44.4748 18.0447 45.475 22.0648H43.8481C41.1038 22.0244 38.4157 22.8446 36.1614 24.4101C36.0313 24.5043 35.8954 24.5904 35.7547 24.6677H35.5649C35.4241 24.5904 35.2883 24.5043 35.1582 24.4101C32.8838 22.8808 30.2053 22.064 27.4646 22.064C24.7239 22.064 22.0454 22.8808 19.7711 24.4101C19.641 24.5043 19.5051 24.5904 19.3644 24.6677H19.1746C19.0338 24.5904 18.898 24.5043 18.7679 24.4101C16.5135 22.8446 13.8254 22.0244 11.0811 22.0648H9.45427ZM40.9198 30.565C41.755 29.9146 42.79 29.5744 43.8481 29.6024H46.0308V25.2507H43.8481C41.9844 25.2281 40.1632 25.8082 38.6558 26.9046C37.8076 27.53 36.7814 27.8674 35.7276 27.8674C34.6737 27.8674 33.6475 27.53 32.7993 26.9046C31.2537 25.8287 29.4156 25.2519 27.5324 25.2519C25.6492 25.2519 23.8111 25.8287 22.2655 26.9046C21.4173 27.53 20.3911 27.8674 19.3373 27.8674C18.2834 27.8674 17.2572 27.53 16.409 26.9046C14.883 25.7942 13.0357 25.2134 11.1489 25.2507H8.89844V29.6024H11.0811C12.1392 29.5744 13.1743 29.9146 14.0094 30.565C15.5522 31.6416 17.3882 32.2189 19.2695 32.2189C21.1508 32.2189 22.9868 31.6416 24.5296 30.565C25.3657 29.9166 26.4 29.5766 27.4578 29.6024C28.5163 29.5721 29.5521 29.9126 30.3861 30.565C31.9317 31.6409 33.7698 32.2177 35.653 32.2177C37.5362 32.2177 39.3742 31.6409 40.9198 30.565ZM40.9198 38.3467C41.755 37.6963 42.79 37.356 43.8481 37.3841H46.0308V33.0323H43.8481C41.9844 33.0098 40.1632 33.5899 38.6558 34.6863C37.8076 35.3116 36.7814 35.649 35.7276 35.649C34.6737 35.649 33.6475 35.3116 32.7993 34.6863C31.2537 33.6104 29.4156 33.0336 27.5324 33.0336C25.6492 33.0336 23.8111 33.6104 22.2655 34.6863C21.4173 35.3116 20.3911 35.649 19.3373 35.649C18.2834 35.649 17.2572 35.3116 16.409 34.6863C14.883 33.5759 13.0357 32.995 11.1489 33.0323H8.89844V37.3841H11.0811C12.1392 37.356 13.1743 37.6963 14.0094 38.3467C15.5522 39.4233 17.3882 40.0005 19.2695 40.0005C21.1508 40.0005 22.9868 39.4233 24.5296 38.3467C25.3657 37.6983 26.4 37.3583 27.4578 37.3841C28.5163 37.3538 29.5521 37.6942 30.3861 38.3467C31.9317 39.4226 33.7698 39.9993 35.653 39.9993C37.5362 39.9993 39.3742 39.4226 40.9198 38.3467Z" fill="#0D0E10"/>
</svg>
