<svg width="179" height="100" viewBox="0 0 179 100" fill="none" xmlns="http://www.w3.org/2000/svg">
<path d="M39.5664 54.79H42.5664V69.5H39.5664V54.79Z" fill="#0D0E10"/>
<path d="M44.3088 64.4601C44.3069 63.4035 44.6184 62.3701 45.2039 61.4906C45.7895 60.6112 46.6228 59.9252 47.5984 59.5195C48.5739 59.1138 49.648 59.0066 50.6845 59.2115C51.721 59.4164 52.6734 59.9242 53.4212 60.6706C54.169 61.417 54.6786 62.3685 54.8855 63.4046C55.0923 64.4408 54.9872 65.515 54.5833 66.4913C54.1794 67.4677 53.495 68.3022 52.6166 68.8895C51.7382 69.4767 50.7054 69.7901 49.6488 69.7901C48.9462 69.7981 48.249 69.6658 47.5982 69.4009C46.9473 69.136 46.3559 68.7439 45.8586 68.2475C45.3612 67.7511 44.968 67.1604 44.7019 66.51C44.4358 65.8597 44.3021 65.1628 44.3088 64.4601ZM51.9688 64.4601C51.957 64.004 51.811 63.5615 51.549 63.1879C51.287 62.8144 50.9207 62.5264 50.4959 62.36C50.071 62.1935 49.6066 62.1561 49.1606 62.2522C48.7146 62.3484 48.3068 62.574 47.9883 62.9007C47.6698 63.2274 47.4548 63.6408 47.37 64.0891C47.2852 64.5374 47.3346 65.0008 47.5118 65.4212C47.689 65.8417 47.9863 66.2005 48.3664 66.4529C48.7465 66.7053 49.1926 66.84 49.6488 66.8401C49.961 66.8488 50.2716 66.7928 50.561 66.6755C50.8504 66.5582 51.1124 66.3821 51.3304 66.1585C51.5484 65.9349 51.7177 65.6685 51.8275 65.3762C51.9374 65.0839 51.9855 64.772 51.9688 64.4601Z" fill="#0D0E10"/>
<path d="M67.0491 59.42V69C67.0491 72.39 64.3991 73.82 61.7191 73.82C60.7766 73.8901 59.8331 73.6995 58.9918 73.2691C58.1504 72.8387 57.4437 72.1852 56.9491 71.38L59.5291 69.89C59.7338 70.3026 60.0577 70.6443 60.4589 70.8708C60.8601 71.0972 61.32 71.198 61.7791 71.16C62.0812 71.2103 62.3908 71.1906 62.6841 71.1024C62.9774 71.0141 63.2465 70.8597 63.4707 70.651C63.6949 70.4423 63.8681 70.1849 63.977 69.8986C64.086 69.6124 64.1277 69.3049 64.0991 69V68.07C63.7463 68.5039 63.2964 68.8486 62.7856 69.0762C62.2748 69.3038 61.7176 69.4079 61.1591 69.38C59.8012 69.38 58.4989 68.8405 57.5387 67.8804C56.5785 66.9202 56.0391 65.6179 56.0391 64.26C56.0391 62.9021 56.5785 61.5998 57.5387 60.6396C58.4989 59.6794 59.8012 59.14 61.1591 59.14C61.7173 59.1145 62.2737 59.2196 62.7841 59.447C63.2945 59.6745 63.7448 60.0179 64.0991 60.45V59.45L67.0491 59.42ZM64.0991 64.26C64.119 63.7736 63.993 63.2924 63.7373 62.8782C63.4817 62.464 63.1079 62.1358 62.6642 61.9357C62.2205 61.7356 61.727 61.6728 61.2473 61.7553C60.7676 61.8379 60.3236 62.062 59.9722 62.3989C59.6209 62.7358 59.3784 63.1701 59.2759 63.646C59.1733 64.1218 59.2155 64.6174 59.3968 65.0691C59.5782 65.5208 59.8905 65.908 60.2937 66.1808C60.6968 66.4536 61.1723 66.5996 61.6591 66.6C61.9768 66.6225 62.2957 66.5781 62.5952 66.4698C62.8947 66.3615 63.1683 66.1917 63.3981 65.9712C63.628 65.7508 63.8092 65.4846 63.9299 65.1899C64.0506 64.8951 64.1082 64.5783 64.0991 64.26Z" fill="#0D0E10"/>
<path d="M68.7776 64.4601C68.7756 63.4035 69.0871 62.3701 69.6727 61.4906C70.2582 60.6112 71.0915 59.9252 72.0671 59.5195C73.0427 59.1138 74.1167 59.0066 75.1532 59.2115C76.1897 59.4164 77.1422 59.9242 77.89 60.6706C78.6378 61.417 79.1474 62.3685 79.3542 63.4046C79.5611 64.4408 79.4559 65.515 79.0521 66.4913C78.6482 67.4677 77.9637 68.3022 77.0854 68.8895C76.207 69.4767 75.1742 69.7901 74.1176 69.7901C73.4149 69.7981 72.7178 69.6658 72.0669 69.4009C71.4161 69.136 70.8247 68.7439 70.3273 68.2475C69.83 67.7511 69.4367 67.1604 69.1706 66.51C68.9045 65.8597 68.7709 65.1628 68.7776 64.4601ZM76.4376 64.4601C76.4258 64.004 76.2798 63.5615 76.0178 63.1879C75.7558 62.8144 75.3895 62.5264 74.9646 62.36C74.5398 62.1935 74.0753 62.1561 73.6293 62.2522C73.1833 62.3484 72.7755 62.574 72.4571 62.9007C72.1386 63.2274 71.9235 63.6408 71.8387 64.0891C71.754 64.5374 71.8033 65.0008 71.9805 65.4212C72.1577 65.8417 72.455 66.2005 72.8351 66.4529C73.2152 66.7053 73.6613 66.84 74.1176 66.8401C74.4281 66.846 74.7365 66.7879 75.0235 66.6694C75.3106 66.5508 75.5701 66.3744 75.7859 66.151C76.0018 65.9277 76.1692 65.6623 76.2779 65.3714C76.3866 65.0804 76.4341 64.7702 76.4176 64.4601H76.4376Z" fill="#0D0E10"/>
<path d="M80.8477 56.7199C80.8477 56.3599 80.9544 56.0081 81.1544 55.7088C81.3544 55.4095 81.6386 55.1762 81.9712 55.0384C82.3037 54.9007 82.6697 54.8646 83.0227 54.9349C83.3758 55.0051 83.7001 55.1784 83.9546 55.433C84.2091 55.6875 84.3825 56.0118 84.4527 56.3648C84.5229 56.7179 84.4869 57.0838 84.3491 57.4164C84.2114 57.749 83.9781 58.0332 83.6788 58.2332C83.3795 58.4332 83.0276 58.5399 82.6677 58.5399C82.1858 58.5373 81.7244 58.3447 81.3836 58.0039C81.0429 57.6632 80.8503 57.2018 80.8477 56.7199ZM81.1577 59.4199H84.1577V69.4999H81.1577V59.4199Z" fill="#0D0E10"/>
<path d="M97.2358 64.4599C97.2722 65.1262 97.1764 65.7931 96.954 66.4223C96.7315 67.0514 96.3869 67.6303 95.9398 68.1257C95.4928 68.6211 94.9521 69.0232 94.349 69.3088C93.7459 69.5944 93.0923 69.7579 92.4258 69.7899C91.8662 69.8168 91.3075 69.7205 90.7892 69.508C90.2709 69.2955 89.8054 68.9719 89.4258 68.5599V73.5599H86.4258V59.4199H89.4258V60.3699C89.8054 59.958 90.2709 59.6343 90.7892 59.4218C91.3075 59.2093 91.8662 59.113 92.4258 59.1399C93.0914 59.1719 93.7442 59.3351 94.3466 59.6201C94.949 59.905 95.4892 60.3062 95.9361 60.8005C96.3831 61.2949 96.7279 61.8726 96.951 62.5006C97.174 63.1286 97.2708 63.7944 97.2358 64.4599ZM94.2358 64.4599C94.2239 63.9906 94.0746 63.535 93.8064 63.1496C93.5382 62.7643 93.1629 62.4661 92.7268 62.2919C92.2908 62.1177 91.8133 62.0753 91.3534 62.1698C90.8936 62.2643 90.4715 62.4916 90.1395 62.8236C89.8075 63.1556 89.5802 63.5777 89.4857 64.0376C89.3912 64.4975 89.4336 64.975 89.6078 65.411C89.782 65.847 90.0802 66.2223 90.4655 66.4905C90.8509 66.7587 91.3064 66.908 91.7758 66.9199C92.1033 66.9407 92.4315 66.8912 92.7384 66.7747C93.0452 66.6581 93.3235 66.4773 93.5547 66.2442C93.7858 66.0112 93.9644 65.7314 94.0784 65.4236C94.1924 65.1159 94.2393 64.7873 94.2158 64.4599H94.2358Z" fill="#0D0E10"/>
<path d="M106.577 66.48C106.577 68.8 104.577 69.79 102.377 69.79C101.498 69.8678 100.616 69.6808 99.8443 69.2531C99.0727 68.8254 98.4467 68.1765 98.0469 67.39L100.667 65.9C100.773 66.2638 101.001 66.5802 101.312 66.7966C101.623 67.0131 101.999 67.1166 102.377 67.09C103.107 67.09 103.467 66.86 103.467 66.46C103.467 65.35 98.4669 65.94 98.4669 62.46C98.4669 60.26 100.327 59.15 102.467 59.15C103.257 59.126 104.038 59.3136 104.731 59.6934C105.424 60.0732 106.002 60.6313 106.407 61.31L103.777 62.69C103.661 62.4259 103.47 62.2012 103.229 62.0432C102.987 61.8852 102.705 61.8007 102.417 61.8C101.897 61.8 101.577 62 101.577 62.37C101.617 63.52 106.577 62.75 106.577 66.48Z" fill="#0D0E10"/>
<path d="M117.619 59.4199V69.4999H114.619V68.5599C114.27 68.9776 113.827 69.3068 113.326 69.5205C112.826 69.7343 112.282 69.8266 111.739 69.7899C109.739 69.7899 107.969 68.3399 107.969 65.6099V59.4199H110.969V65.1699C110.942 65.415 110.971 65.6628 111.052 65.8955C111.134 66.1281 111.266 66.3397 111.439 66.5149C111.612 66.6902 111.822 66.8246 112.054 66.9085C112.286 66.9924 112.533 67.0236 112.779 66.9999C113.879 66.9999 114.649 66.3599 114.649 64.9299V59.4199H117.619Z" fill="#0D0E10"/>
<path d="M134.956 63.3199V69.4999H131.956V63.5799C131.956 62.5799 131.466 61.9199 130.506 61.9199C129.546 61.9199 128.926 62.6299 128.926 63.8199V69.4999H125.926V63.5799C125.926 62.5799 125.446 61.9199 124.476 61.9199C123.506 61.9199 122.906 62.6299 122.906 63.8199V69.4999H119.906V59.4199H122.906V60.3499C123.22 59.9392 123.631 59.6134 124.103 59.402C124.574 59.1907 125.091 59.1006 125.606 59.1399C126.124 59.1148 126.639 59.2241 127.101 59.4572C127.564 59.6903 127.958 60.0392 128.246 60.4699C128.581 60.0196 129.024 59.6614 129.535 59.4288C130.046 59.1962 130.607 59.0968 131.166 59.1399C133.446 59.1399 134.956 60.7999 134.956 63.3199Z" fill="#0D0E10"/>
<path d="M137.517 59.3599C138.754 59.3599 139.757 58.357 139.757 57.1199C139.757 55.8828 138.754 54.8799 137.517 54.8799C136.28 54.8799 135.277 55.8828 135.277 57.1199C135.277 58.357 136.28 59.3599 137.517 59.3599Z" fill="#0D0E10"/>
<path d="M73.5173 47.1599C79.3108 47.1599 84.0073 42.4634 84.0073 36.6699C84.0073 30.8765 79.3108 26.1799 73.5173 26.1799C67.7239 26.1799 63.0273 30.8765 63.0273 36.6699C63.0273 42.4634 67.7239 47.1599 73.5173 47.1599Z" fill="#0D0E10"/>
<path d="M96.9666 47.1599C102.76 47.1599 107.457 42.4634 107.457 36.6699C107.457 30.8765 102.76 26.1799 96.9666 26.1799C91.1731 26.1799 86.4766 30.8765 86.4766 36.6699C86.4766 42.4634 91.1731 47.1599 96.9666 47.1599Z" fill="#0D0E10"/>
<path d="M60.5559 26.1799H39.5859V47.1499H60.5559V26.1799Z" fill="#0D0E10"/>
</svg>
