<svg width="178" height="48" viewBox="0 0 178 48" fill="none" xmlns="http://www.w3.org/2000/svg">
<path d="M89.6622 32.7563H83.8198V16.2425H89.6622V32.7563ZM84.3903 32.1531H89.0917V16.8457H84.3903V32.1531ZM97.7915 32.7563H92.0666V16.2425H104.028C105.741 16.0958 107.448 16.6044 108.836 17.6758C109.434 18.254 109.897 18.9705 110.19 19.7693C110.483 20.5681 110.597 21.4276 110.524 22.2807C110.609 23.755 110.166 25.209 109.281 26.3525C108.235 27.6217 106.494 28.2756 104.106 28.2985C103.505 28.3154 98.9988 28.2985 97.7949 28.2985L97.7915 32.7563ZM92.6337 32.1531H97.2209V27.6892H97.5074C97.5656 27.6892 103.416 27.7085 104.093 27.6892C106.317 27.6687 107.915 27.086 108.85 25.9483C109.637 24.9138 110.028 23.6044 109.945 22.2795C110.016 21.5151 109.918 20.7438 109.661 20.0256C109.404 19.3073 108.993 18.6614 108.462 18.1378C107.174 17.1607 105.599 16.7021 104.02 16.8445H92.6371L92.6337 32.1531ZM102.816 24.5887H97.1821V20.0935H102.853C103.255 20.0347 103.665 20.0843 104.044 20.2377C104.423 20.391 104.759 20.6431 105.022 20.9705C105.259 21.3891 105.372 21.8742 105.343 22.3616C105.365 22.8141 105.272 23.2646 105.075 23.667C104.805 24.0119 104.455 24.2774 104.059 24.4379C103.663 24.5985 103.235 24.6488 102.816 24.5838V24.5887ZM97.7527 23.9855H102.816C103.752 23.9855 104.331 23.7792 104.588 23.3545C104.729 23.0458 104.793 22.7039 104.774 22.3616C104.799 22.0021 104.725 21.6427 104.562 21.3265L104.555 21.3156C104.283 20.8933 103.744 20.6967 102.853 20.6967H97.7527V23.9855ZM120.937 33C115.813 33 112.755 31.6548 111.59 28.8884C111.399 28.3541 111.27 27.7976 111.204 27.2308L111.154 26.8833H117.25L117.29 27.1367C117.337 27.3939 117.44 27.636 117.591 27.8437C117.832 28.1513 118.635 28.6677 121.301 28.6677C124.505 28.6677 124.505 28.0729 124.505 27.7532C124.505 27.2139 124.134 27.0293 121.521 26.7349L121.024 26.6855C120.041 26.5877 118.797 26.4635 118.229 26.4116C113.436 25.9532 111.297 24.3787 111.297 21.3084C111.297 18.0835 114.938 16 120.574 16C125.171 16 128.134 17.2812 129.376 19.8112C129.671 20.3996 129.869 21.0369 129.962 21.6956L130.002 22.0346H123.899L123.874 21.762C123.85 21.5489 123.764 21.349 123.627 21.1901C123.399 20.8668 122.678 20.3323 120.439 20.3323C117.69 20.3323 117.311 20.7039 117.311 21.1045C117.311 21.6389 118.18 21.8283 120.963 22.1432C122.123 22.2433 123.989 22.446 124.628 22.5281C128.646 22.9889 130.439 24.5247 130.439 27.5095C130.44 30.0128 128.791 33 120.937 33ZM111.82 27.4866C111.877 27.8844 111.976 28.2744 112.114 28.6496C113.175 31.1698 116.062 32.3968 120.937 32.3968C125.013 32.3968 129.873 31.5523 129.873 27.5095C129.873 24.8637 128.286 23.5535 124.568 23.1277C123.929 23.0456 122.074 22.8442 120.916 22.7428C117.949 22.4026 116.743 22.2216 116.743 21.1045C116.743 19.9487 118.043 19.7291 120.441 19.7291C122.337 19.7291 123.561 20.091 124.08 20.8209C124.222 21.0008 124.329 21.2082 124.395 21.4314H129.341C129.241 20.9648 129.084 20.5141 128.873 20.091C127.732 17.7759 124.944 16.6032 120.576 16.6032C115.287 16.6032 111.869 18.4503 111.869 21.3084C111.869 24.0349 113.788 25.3813 118.281 25.8108C118.852 25.8627 120.094 25.9869 121.08 26.0859L121.58 26.1353C124.007 26.4056 125.078 26.5745 125.078 27.7532C125.078 29.0224 123.694 29.2709 121.303 29.2709C119.091 29.2709 117.695 28.9198 117.155 28.2285C116.989 28.0081 116.863 27.7563 116.785 27.4866H111.82ZM141.279 32.9795C135.323 32.9795 132.036 30.4327 132.036 25.8072V16.2425H137.801V25.8072C137.801 27.3937 139.144 28.3033 141.485 28.3033C143.721 28.3033 145.11 27.3538 145.11 25.8277V16.2425H150.815V26.3139C150.821 30.5497 147.342 32.9795 141.276 32.9795H141.279ZM132.607 16.8457V25.8072C132.607 31.5233 138.036 32.3763 141.279 32.3763C144.632 32.3763 150.254 31.5885 150.254 26.3139V16.8457H145.69V25.8277C145.69 27.6977 144.042 28.9065 141.494 28.9065C138.83 28.9065 137.24 27.7483 137.24 25.8072V16.8457H132.607ZM174.993 32.7563H169.552V25.3005L166.467 32.7563H161.721L158.667 25.315V32.7563H153.207V16.2425H160.389L164.121 25.3475L168.032 16.2425H175L174.993 32.7563ZM170.123 32.1531H174.423V16.8457H168.395L164.102 26.8339L160.01 16.8457H153.773V32.1531H158.092V22.4122L162.086 32.1567H166.08L170.116 22.4267L170.123 32.1531ZM10.1966 16.5441H5V32.4547H19.3597V28.2189H10.1966V16.5441ZM29.8488 16.1822C23.2155 16.1822 19.7271 19.5059 19.7271 24.386C19.7271 29.8994 23.389 32.696 29.8488 32.696C36.9602 32.696 39.951 29.4531 39.951 24.386C39.951 19.2405 36.5767 16.1798 29.8488 16.1798V16.1822ZM29.8294 20.3167C30.2809 20.3144 30.7322 20.3422 31.1804 20.3999L25.3711 26.5419C25.0961 25.8845 24.9621 25.1709 24.9785 24.4523C24.9785 21.9562 26.1676 20.3142 29.8294 20.3142V20.3167ZM29.8488 28.6266C29.4137 28.6287 28.9789 28.6029 28.5468 28.5494L34.3664 22.3966C34.6311 23.0431 34.7577 23.7434 34.7373 24.4475C34.7373 26.8761 33.6418 28.6242 29.8488 28.6242V28.6266ZM50.2472 26.455H55.5956C55.5169 26.8475 55.3528 27.2151 55.1163 27.5288C54.0076 28.4838 52.5924 28.9486 51.167 28.8257C50.4495 28.9069 49.7239 28.824 49.0393 28.5828C48.3548 28.3415 47.7273 27.9475 47.1993 27.4274C46.6586 26.5888 46.4017 25.5817 46.4701 24.5694C46.3827 23.5086 46.662 22.4503 47.2564 21.5907C48.0038 20.6979 49.2693 20.313 51.1293 20.313C52.3128 20.2094 53.4947 20.5308 54.4842 21.2251C54.796 21.487 55.0291 21.8391 55.1551 22.2385H60.1155C60.0794 21.5804 59.9298 20.9347 59.6739 20.3335C58.486 17.7795 55.7245 16.2594 51.0289 16.2594C46.9449 16.2594 44.2039 17.5768 42.6897 19.5638C41.6896 20.9987 41.1762 22.7482 41.2325 24.5296C41.1678 26.3512 41.6679 28.1454 42.6566 29.6388C44.1526 31.6898 46.8171 32.6984 50.019 32.6984C52.1478 32.8553 54.262 32.225 55.9995 30.9153L56.1342 32.4547H60.2547V23.0299H50.2472V26.455ZM71.95 16.1786C65.3178 16.1786 61.8283 19.5023 61.8283 24.3824C61.8283 29.8958 65.489 32.6924 71.95 32.6924C79.0625 32.6924 82.0533 29.4494 82.0533 24.3824C82.0533 19.2405 78.6791 16.1798 71.95 16.1798V16.1786ZM71.9317 20.313C72.3714 20.3117 72.8107 20.3382 73.2474 20.3927L67.4608 26.5142C67.1945 25.8641 67.0649 25.1606 67.0808 24.4523C67.0763 21.9562 68.2699 20.3142 71.9317 20.3142V20.313ZM71.95 28.623C71.5034 28.625 71.0571 28.5976 70.6137 28.541L76.4528 22.3664C76.7274 23.0215 76.8589 23.7337 76.8373 24.4499C76.8396 26.8761 75.7487 28.6242 71.95 28.6242V28.623Z" fill="#0D0E10"/>
</svg>
