<svg width="179" height="100" viewBox="0 0 179 100" fill="none" xmlns="http://www.w3.org/2000/svg">
<path d="M36.1532 57.6945H44.1483L24.3428 37.8889H16.3477L36.1532 57.6945Z" fill="#0D0E10"/>
<path d="M28.4492 37.8889L47.5414 56.9811V37.8889H42.3747V43.9167L36.3469 37.8889L28.4492 37.8889Z" fill="#0D0E10"/>
<path d="M13 38.552V57.6945H18.1667V51.6667L24.1944 57.6945H32.1425L13 38.552Z" fill="#0D0E10"/>
<path d="M60.0106 54.7165H64.6399V57.4445H56.4766V42.9365H60.0106V54.7165Z" fill="#0D0E10"/>
<path d="M70.952 57.6098C69.8222 57.6098 68.8026 57.3687 67.8933 56.8864C66.9977 56.4042 66.2882 55.7153 65.7646 54.8198C65.2549 53.9242 65 52.8771 65 51.6784C65 50.4936 65.2617 49.4533 65.7853 48.5578C66.3089 47.6484 67.0253 46.9526 67.9346 46.4704C68.844 45.9882 69.8635 45.7471 70.9933 45.7471C72.1231 45.7471 73.1426 45.9882 74.052 46.4704C74.9613 46.9526 75.6777 47.6484 76.2013 48.5578C76.7249 49.4533 76.9866 50.4936 76.9866 51.6784C76.9866 52.8633 76.718 53.9104 76.1806 54.8198C75.6571 55.7153 74.9337 56.4042 74.0106 56.8864C73.1013 57.3687 72.0817 57.6098 70.952 57.6098ZM70.952 54.5511C71.6271 54.5511 72.1989 54.3031 72.6673 53.8071C73.1495 53.3111 73.3906 52.6016 73.3906 51.6784C73.3906 50.7553 73.1564 50.0458 72.688 49.5498C72.2333 49.0538 71.6684 48.8058 70.9933 48.8058C70.3044 48.8058 69.7326 49.0538 69.278 49.5498C68.8233 50.032 68.596 50.7416 68.596 51.6784C68.596 52.6016 68.8164 53.3111 69.2573 53.8071C69.712 54.3031 70.2769 54.5511 70.952 54.5511Z" fill="#0D0E10"/>
<path d="M82.6231 45.7471C83.436 45.7471 84.1456 45.9124 84.7518 46.2431C85.3718 46.5737 85.8471 47.0078 86.1778 47.5451V45.9124H89.7118V57.4238C89.7118 58.4847 89.4982 59.4422 89.0711 60.2964C88.6578 61.1644 88.0171 61.8533 87.1491 62.3631C86.2949 62.8729 85.2271 63.1278 83.9458 63.1278C82.2373 63.1278 80.8527 62.7213 79.7918 61.9084C78.7309 61.1093 78.1247 60.0209 77.9731 58.6431H81.4658C81.576 59.084 81.8378 59.4284 82.2511 59.6764C82.6645 59.9382 83.1742 60.0691 83.7805 60.0691C84.5107 60.0691 85.0893 59.8556 85.5165 59.4284C85.9573 59.0151 86.1778 58.3469 86.1778 57.4238V55.7911C85.8333 56.3284 85.358 56.7693 84.7518 57.1138C84.1456 57.4444 83.436 57.6098 82.6231 57.6098C81.6725 57.6098 80.8113 57.3687 80.0398 56.8864C79.2682 56.3904 78.6551 55.6947 78.2005 54.7991C77.7596 53.8898 77.5391 52.8427 77.5391 51.6578C77.5391 50.4729 77.7596 49.4327 78.2005 48.5371C78.6551 47.6416 79.2682 46.9526 80.0398 46.4704C80.8113 45.9882 81.6725 45.7471 82.6231 45.7471ZM86.1778 51.6784C86.1778 50.7967 85.9298 50.1009 85.4338 49.5911C84.9516 49.0813 84.3591 48.8264 83.6565 48.8264C82.9538 48.8264 82.3545 49.0813 81.8585 49.5911C81.3762 50.0871 81.1351 50.776 81.1351 51.6578C81.1351 52.5396 81.3762 53.2422 81.8585 53.7658C82.3545 54.2756 82.9538 54.5304 83.6565 54.5304C84.3591 54.5304 84.9516 54.2756 85.4338 53.7658C85.9298 53.256 86.1778 52.5602 86.1778 51.6784Z" fill="#0D0E10"/>
<path d="M96.9012 57.6098C95.7714 57.6098 94.7519 57.3687 93.8425 56.8864C92.947 56.4042 92.2374 55.7153 91.7139 54.8198C91.2041 53.9242 90.9492 52.8771 90.9492 51.6784C90.9492 50.4936 91.211 49.4533 91.7345 48.5578C92.2581 47.6484 92.9745 46.9526 93.8839 46.4704C94.7932 45.9882 95.8128 45.7471 96.9425 45.7471C98.0723 45.7471 99.0919 45.9882 100.001 46.4704C100.911 46.9526 101.627 47.6484 102.151 48.5578C102.674 49.4533 102.936 50.4936 102.936 51.6784C102.936 52.8633 102.667 53.9104 102.13 54.8198C101.606 55.7153 100.883 56.4042 99.9599 56.8864C99.0505 57.3687 98.031 57.6098 96.9012 57.6098ZM96.9012 54.5511C97.5763 54.5511 98.1481 54.3031 98.6165 53.8071C99.0988 53.3111 99.3399 52.6016 99.3399 51.6784C99.3399 50.7553 99.1057 50.0458 98.6372 49.5498C98.1825 49.0538 97.6177 48.8058 96.9425 48.8058C96.2537 48.8058 95.6819 49.0538 95.2272 49.5498C94.7725 50.032 94.5452 50.7416 94.5452 51.6784C94.5452 52.6016 94.7657 53.3111 95.2065 53.8071C95.6612 54.3031 96.2261 54.5511 96.9012 54.5511Z" fill="#0D0E10"/>
<path d="M105.967 44.7137C105.347 44.7137 104.838 44.5346 104.438 44.1764C104.052 43.8044 103.859 43.3497 103.859 42.8124C103.859 42.2613 104.052 41.8066 104.438 41.4484C104.838 41.0764 105.347 40.8904 105.967 40.8904C106.574 40.8904 107.07 41.0764 107.455 41.4484C107.855 41.8066 108.055 42.2613 108.055 42.8124C108.055 43.3497 107.855 43.8044 107.455 44.1764C107.07 44.5346 106.574 44.7137 105.967 44.7137ZM107.724 45.9124V57.4443H104.19V45.9124H107.724Z" fill="#0D0E10"/>
<path d="M113.198 47.5451C113.543 47.0078 114.018 46.5737 114.624 46.2431C115.23 45.9124 115.94 45.7471 116.753 45.7471C117.704 45.7471 118.565 45.9882 119.336 46.4704C120.108 46.9526 120.714 47.6416 121.155 48.5371C121.61 49.4327 121.837 50.4729 121.837 51.6578C121.837 52.8427 121.61 53.8898 121.155 54.7991C120.714 55.6947 120.108 56.3904 119.336 56.8864C118.565 57.3687 117.704 57.6098 116.753 57.6098C115.954 57.6098 115.244 57.4444 114.624 57.1138C114.018 56.7831 113.543 56.356 113.198 55.8324V62.9418H109.664V45.9124H113.198V47.5451ZM118.241 51.6578C118.241 50.776 117.993 50.0871 117.497 49.5911C117.015 49.0813 116.415 48.8264 115.699 48.8264C114.996 48.8264 114.397 49.0813 113.901 49.5911C113.419 50.1009 113.178 50.7967 113.178 51.6784C113.178 52.5602 113.419 53.256 113.901 53.7658C114.397 54.2756 114.996 54.5304 115.699 54.5304C116.402 54.5304 117.001 54.2756 117.497 53.7658C117.993 53.2422 118.241 52.5396 118.241 51.6578Z" fill="#0D0E10"/>
<path d="M127.764 57.6098C126.758 57.6098 125.863 57.4376 125.078 57.0931C124.292 56.7487 123.672 56.2802 123.218 55.6878C122.763 55.0816 122.508 54.4064 122.453 53.6624H125.946C125.987 54.062 126.173 54.3858 126.504 54.6338C126.834 54.8818 127.241 55.0058 127.723 55.0058C128.164 55.0058 128.501 54.9231 128.736 54.7578C128.984 54.5787 129.108 54.3513 129.108 54.0758C129.108 53.7451 128.935 53.504 128.591 53.3524C128.246 53.1871 127.688 53.008 126.917 52.8151C126.09 52.6222 125.401 52.4224 124.85 52.2158C124.299 51.9953 123.824 51.6578 123.424 51.2031C123.025 50.7347 122.825 50.1078 122.825 49.3224C122.825 48.6611 123.004 48.0618 123.362 47.5244C123.734 46.9733 124.272 46.5393 124.974 46.2224C125.691 45.9055 126.538 45.7471 127.516 45.7471C128.963 45.7471 130.1 46.1053 130.926 46.8217C131.767 47.5382 132.249 48.4889 132.373 49.6738H129.108C129.052 49.2742 128.873 48.9573 128.57 48.7231C128.281 48.4889 127.895 48.3718 127.413 48.3718C127 48.3718 126.683 48.4544 126.462 48.6198C126.242 48.7713 126.132 48.9849 126.132 49.2604C126.132 49.5911 126.304 49.8391 126.648 50.0044C127.006 50.1698 127.558 50.3351 128.302 50.5004C129.156 50.7209 129.852 50.9413 130.389 51.1618C130.926 51.3684 131.395 51.7129 131.794 52.1951C132.208 52.6636 132.421 53.2973 132.435 54.0964C132.435 54.7716 132.242 55.3778 131.856 55.9151C131.484 56.4387 130.94 56.852 130.224 57.1551C129.521 57.4582 128.701 57.6098 127.764 57.6098Z" fill="#0D0E10"/>
<path d="M145.361 45.9124V57.4443H141.827V55.8737C141.469 56.3835 140.98 56.7968 140.36 57.1137C139.754 57.4168 139.079 57.5683 138.335 57.5683C137.453 57.5683 136.674 57.3755 135.999 56.9897C135.324 56.5901 134.801 56.0183 134.429 55.2743C134.057 54.5303 133.871 53.6555 133.871 52.6497V45.9124H137.384V52.1743C137.384 52.9459 137.584 53.5452 137.983 53.9723C138.383 54.3995 138.92 54.613 139.595 54.613C140.284 54.613 140.828 54.3995 141.228 53.9723C141.628 53.5452 141.827 52.9459 141.827 52.1743V45.9124H145.361Z" fill="#0D0E10"/>
<path d="M161.995 45.7883C163.428 45.7883 164.565 46.2223 165.405 47.0903C166.26 47.9583 166.687 49.1639 166.687 50.707V57.4443H163.173V51.1823C163.173 50.4383 162.974 49.8666 162.574 49.467C162.188 49.0537 161.651 48.847 160.962 48.847C160.273 48.847 159.729 49.0537 159.329 49.467C158.944 49.8666 158.751 50.4383 158.751 51.1823V57.4443H155.237V51.1823C155.237 50.4383 155.038 49.8666 154.638 49.467C154.252 49.0537 153.715 48.847 153.026 48.847C152.337 48.847 151.793 49.0537 151.393 49.467C151.008 49.8666 150.815 50.4383 150.815 51.1823V57.4443H147.281V45.9123H150.815V47.359C151.173 46.8768 151.641 46.4979 152.22 46.2223C152.799 45.933 153.453 45.7883 154.183 45.7883C155.051 45.7883 155.823 45.9743 156.498 46.3463C157.187 46.7183 157.724 47.2488 158.11 47.9377C158.51 47.3039 159.054 46.7872 159.743 46.3877C160.432 45.9881 161.183 45.7883 161.995 45.7883Z" fill="#0D0E10"/>
</svg>
