<svg width="178" height="48" viewBox="0 0 178 48" fill="none" xmlns="http://www.w3.org/2000/svg">
<path d="M54.916 32.1H65.2127V29.1906H58.0558V15.6055H54.916V32.1Z" fill="#0D0E10"/>
<path d="M71.4003 32.443C72.6471 32.443 73.7437 32.168 74.6902 31.6182C75.6444 31.0607 76.3871 30.2933 76.9181 29.3159C77.4568 28.3308 77.7261 27.1968 77.7261 25.9139C77.7261 24.6386 77.4606 23.5123 76.9296 22.5348C76.3986 21.5497 75.656 20.7784 74.7017 20.221C73.7552 19.6635 72.6548 19.3848 71.4003 19.3848C70.169 19.3848 69.0801 19.6597 68.1336 20.2095C67.1871 20.7593 66.4444 21.5268 65.9057 22.5119C65.367 23.4893 65.0977 24.6233 65.0977 25.9139C65.0977 27.1891 65.3593 28.3193 65.8826 29.3044C66.4136 30.2819 67.1524 31.0493 68.0989 31.6068C69.0455 32.1642 70.146 32.443 71.4003 32.443ZM71.4003 29.5335C70.423 29.5335 69.6804 29.209 69.1725 28.5599C68.6722 27.9032 68.4222 27.0212 68.4222 25.9139C68.4222 24.8371 68.6607 23.9666 69.1379 23.3022C69.6227 22.6303 70.3768 22.2942 71.4003 22.2942C72.3931 22.2942 73.1395 22.6226 73.6397 23.2793C74.1476 23.9361 74.4016 24.8142 74.4016 25.9139C74.4016 26.9754 74.1516 27.8458 73.6513 28.5255C73.1588 29.1975 72.4084 29.5335 71.4003 29.5335Z" fill="#0D0E10"/>
<path d="M83.936 32.443C84.5209 32.443 85.0596 32.3742 85.5521 32.2368C86.0523 32.0993 86.5064 31.9046 86.9142 31.6526V32.9011C86.9297 33.3593 86.8103 33.7411 86.5564 34.0466C86.3101 34.3597 85.9792 34.5926 85.5637 34.7453C85.1481 34.9057 84.7056 34.9859 84.2362 34.9859C83.7975 34.9859 83.3896 34.8904 83.0126 34.6995C82.6432 34.5086 82.3584 34.2299 82.1583 33.8633L79.2495 35.2608C79.7265 36.0626 80.4076 36.7079 81.2926 37.1966C82.1777 37.6929 83.1511 37.9411 84.2131 37.9411C85.1289 37.9411 85.9792 37.8189 86.7641 37.5746C87.5491 37.3379 88.211 36.9752 88.7496 36.4864C89.296 35.9977 89.6693 35.3753 89.8694 34.6193C89.9386 34.352 89.9847 34.081 90.0079 33.806C90.0386 33.5388 90.054 33.2524 90.054 32.947V19.7284H87.3067V20.4157C86.8834 20.0873 86.4024 19.8353 85.8638 19.6597C85.3328 19.4764 84.7441 19.3848 84.0976 19.3848C82.9049 19.3848 81.8659 19.6674 80.981 20.2324C80.096 20.7975 79.4072 21.5726 78.9147 22.5577C78.4298 23.5351 78.1875 24.6539 78.1875 25.9139C78.1875 27.151 78.426 28.262 78.9032 29.2471C79.388 30.2322 80.0613 31.0111 80.9232 31.5839C81.7851 32.1566 82.7894 32.443 83.936 32.443ZM84.4439 29.671C83.7668 29.671 83.2127 29.5029 82.7817 29.167C82.3508 28.831 82.0314 28.3804 81.8237 27.8153C81.6159 27.2426 81.5119 26.6088 81.5119 25.9139C81.5119 25.2266 81.6197 24.6004 81.8352 24.0353C82.0507 23.4626 82.3815 23.0083 82.8279 22.6722C83.2819 22.3286 83.8591 22.1568 84.5594 22.1568C85.5444 22.1568 86.2485 22.5043 86.6718 23.1991C87.0951 23.8864 87.3067 24.7913 87.3067 25.9139C87.3067 27.0364 87.0912 27.9451 86.6603 28.64C86.237 29.3273 85.4983 29.671 84.4439 29.671Z" fill="#0D0E10"/>
<path d="M97.5117 32.443C98.7584 32.443 99.855 32.168 100.802 31.6182C101.756 31.0607 102.498 30.2933 103.029 29.3159C103.568 28.3308 103.837 27.1968 103.837 25.9139C103.837 24.6386 103.572 23.5123 103.041 22.5348C102.51 21.5497 101.767 20.7784 100.813 20.221C99.8665 19.6635 98.766 19.3848 97.5117 19.3848C96.2803 19.3848 95.1914 19.6597 94.2449 20.2095C93.2984 20.7593 92.5558 21.5268 92.017 22.5119C91.4784 23.4893 91.209 24.6233 91.209 25.9139C91.209 27.1891 91.4706 28.3193 91.994 29.3044C92.5249 30.2819 93.2637 31.0493 94.2103 31.6068C95.1569 32.1642 96.2573 32.443 97.5117 32.443ZM97.5117 29.5335C96.5343 29.5335 95.7917 29.209 95.2838 28.5599C94.7836 27.9032 94.5335 27.0212 94.5335 25.9139C94.5335 24.8371 94.772 23.9666 95.2492 23.3022C95.734 22.6303 96.4881 22.2942 97.5117 22.2942C98.5044 22.2942 99.2509 22.6226 99.7511 23.2793C100.259 23.9361 100.513 24.8142 100.513 25.9139C100.513 26.9754 100.263 27.8458 99.7626 28.5255C99.2701 29.1975 98.5198 29.5335 97.5117 29.5335Z" fill="#0D0E10"/>
<path d="M105.221 18.0108H108.361V15.2617H105.221V18.0108ZM105.221 32.0999H108.361V19.729H105.221V32.0999Z" fill="#0D0E10"/>
<path d="M110.414 37.5975H113.577V31.6526C113.985 31.9046 114.435 32.0993 114.927 32.2368C115.428 32.3742 115.97 32.443 116.555 32.443C117.702 32.443 118.707 32.1566 119.568 31.5839C120.43 31.0111 121.099 30.2322 121.576 29.2471C122.061 28.262 122.304 27.151 122.304 25.9139C122.304 24.6539 122.058 23.5351 121.565 22.5577C121.08 21.5726 120.395 20.7975 119.51 20.2324C118.625 19.6674 117.586 19.3848 116.394 19.3848C115.747 19.3848 115.155 19.4764 114.616 19.6597C114.085 19.8353 113.608 20.0873 113.185 20.4157V19.7284H110.414V37.5975ZM116.047 29.671C115.001 29.671 114.262 29.3273 113.831 28.64C113.4 27.9451 113.185 27.0364 113.185 25.9139C113.185 24.7913 113.396 23.8864 113.82 23.1991C114.251 22.5043 114.954 22.1568 115.932 22.1568C116.632 22.1568 117.206 22.3286 117.652 22.6722C118.106 23.0083 118.441 23.4626 118.656 24.0353C118.872 24.6004 118.98 25.2266 118.98 25.9139C118.98 26.6088 118.875 27.2426 118.668 27.8153C118.46 28.3804 118.141 28.831 117.71 29.167C117.279 29.5029 116.725 29.671 116.047 29.671Z" fill="#0D0E10"/>
<path d="M127.99 32.443C129.621 32.443 130.899 32.0803 131.822 31.3548C132.745 30.6293 133.207 29.6328 133.207 28.3651C133.207 27.403 132.907 26.6432 132.307 26.0857C131.714 25.5283 130.706 25.0662 129.283 24.6997C128.313 24.4553 127.589 24.2567 127.112 24.104C126.643 23.9514 126.331 23.8024 126.177 23.6573C126.031 23.5123 125.958 23.3328 125.958 23.119C125.958 22.76 126.131 22.4852 126.477 22.2942C126.832 22.1033 127.297 22.027 127.874 22.0651C129.098 22.1568 129.768 22.6761 129.883 23.623L133.092 23.0502C132.93 21.9277 132.376 21.0381 131.429 20.3813C130.483 19.717 129.275 19.3848 127.805 19.3848C126.297 19.3848 125.092 19.736 124.192 20.4386C123.292 21.1411 122.841 22.088 122.841 23.2793C122.841 24.2262 123.153 24.9746 123.776 25.5244C124.399 26.0666 125.473 26.5324 126.997 26.9219C127.898 27.1586 128.559 27.3495 128.982 27.4946C129.413 27.6397 129.691 27.7886 129.813 27.9413C129.936 28.0864 129.998 28.2812 129.998 28.5255C129.998 28.915 129.844 29.2204 129.536 29.4419C129.229 29.6557 128.79 29.7626 128.22 29.7626C127.528 29.7626 126.954 29.5984 126.501 29.27C126.055 28.9417 125.765 28.4874 125.635 27.907L122.426 28.388C122.633 29.6786 123.218 30.679 124.181 31.3891C125.15 32.0917 126.42 32.443 127.99 32.443Z" fill="#0D0E10"/>
<path d="M139 32.466C139.901 32.466 140.685 32.3171 141.356 32.0193C142.025 31.7215 142.586 31.3244 143.041 30.828V32.0995H145.811V19.7285H142.648V26.0057C142.648 26.7693 142.559 27.3878 142.382 27.8613C142.214 28.3271 141.994 28.6822 141.725 28.9265C141.455 29.1633 141.167 29.3236 140.859 29.4077C140.551 29.4916 140.263 29.5337 139.993 29.5337C139.324 29.5337 138.804 29.3847 138.435 29.0869C138.073 28.7891 137.811 28.4187 137.65 27.9758C137.488 27.5329 137.392 27.0938 137.361 26.6585C137.331 26.2156 137.315 25.8529 137.315 25.5703V19.7285H134.129V26.67C134.129 26.8761 134.144 27.2045 134.175 27.6551C134.206 28.1056 134.295 28.6058 134.441 29.1557C134.587 29.6978 134.829 30.2209 135.168 30.7249C135.515 31.2289 135.995 31.6451 136.611 31.9735C137.226 32.3018 138.023 32.466 139 32.466Z" fill="#0D0E10"/>
<path d="M147.629 32.1004H150.792V24.6091C150.792 23.899 150.987 23.3224 151.38 22.8795C151.78 22.4289 152.307 22.2036 152.962 22.2036C153.647 22.2036 154.182 22.4328 154.566 22.891C154.958 23.3415 155.155 23.9753 155.155 24.7924V32.1004H158.295V24.6091C158.295 23.899 158.491 23.3224 158.884 22.8795C159.284 22.4289 159.811 22.2036 160.464 22.2036C161.15 22.2036 161.684 22.4328 162.069 22.891C162.462 23.3415 162.658 23.9753 162.658 24.7924V32.1004H165.797V23.9676C165.797 22.616 165.432 21.5241 164.701 20.6916C163.978 19.8517 162.904 19.4316 161.48 19.4316C160.68 19.4316 159.946 19.6035 159.275 19.9471C158.606 20.2908 158.072 20.7604 157.671 21.356C157.348 20.7757 156.886 20.3099 156.286 19.9586C155.686 19.6073 154.939 19.4316 154.047 19.4316C153.292 19.4316 152.6 19.5806 151.969 19.8784C151.338 20.1686 150.814 20.5695 150.399 21.0811V19.7295H147.629V32.1004Z" fill="#0D0E10"/>
<path d="M28.5809 6C18.5627 6 10.4414 14.0589 10.4414 24C20.4596 24 28.5809 15.9411 28.5809 6Z" fill="#0D0E10"/>
<path d="M28.582 42C38.6002 42 46.7216 33.9411 46.7216 24C36.7034 24 28.582 32.0589 28.582 42Z" fill="#0D0E10"/>
<path d="M28.582 6C38.6002 6 46.7216 14.0589 46.7216 24C36.7034 24 28.582 15.9411 28.582 6Z" fill="#0D0E10"/>
<path d="M28.5809 42C18.5627 42 10.4414 33.9411 10.4414 24C20.4596 24 28.5809 32.0589 28.5809 42Z" fill="#0D0E10"/>
</svg>
